<svg version="1.1" id="Layer_1" xmlns="http://www.w3.org/2000/svg" xmlns:xlink="http://www.w3.org/1999/xlink" x="0px" y="0px"
	 width="100%" viewBox="0 0 327 244" enable-background="new 0 0 327 244" xml:space="preserve">
<path fill="#FDFEFE" opacity="1.000000" stroke="none" 
	d="
M196.000000,245.000000 
	C130.666672,245.000000 65.833351,245.000000 1.000017,245.000000 
	C1.000012,163.666687 1.000012,82.333366 1.000006,1.000039 
	C109.999969,1.000026 218.999939,1.000026 327.999939,1.000013 
	C327.999939,82.333290 327.999939,163.666580 327.999969,244.999939 
	C284.166656,245.000000 240.333328,245.000000 196.000000,245.000000 
M50.087311,121.190315 
	C50.087311,121.190315 50.026527,121.484230 49.807446,121.410858 
	C49.807446,121.410858 49.919083,121.664200 49.390327,122.513863 
	C49.262600,122.822029 49.134872,123.130188 48.756710,123.385933 
	C48.756710,123.385933 48.610668,123.591995 48.610668,123.591995 
	C48.610668,123.591995 48.798416,123.761528 48.297916,124.385078 
	C48.193146,124.630135 48.088371,124.875198 47.456505,125.378342 
	C47.267231,125.921280 47.077953,126.464218 46.553448,127.389832 
	C46.509159,127.553528 46.464874,127.717224 45.827854,128.128433 
	C37.967133,135.972748 30.049973,143.762146 22.306353,151.720398 
	C21.140448,152.918625 20.784988,154.905441 20.412199,157.129883 
	C28.476299,164.173462 29.787313,164.249252 38.197624,157.847382 
	C41.223518,155.544083 44.260338,153.231201 47.079456,150.686981 
	C49.850174,148.186478 51.902878,148.371277 54.665867,150.986191 
	C60.886135,156.873108 67.467369,162.378632 74.190063,168.631042 
	C75.788673,169.745911 77.387283,170.860779 78.991722,172.018539 
	C78.991722,172.018539 79.034889,172.015320 79.182404,172.453293 
	C79.394470,172.732056 79.670387,172.828842 80.363472,173.290314 
	C81.281662,173.855652 82.199844,174.420975 83.357590,175.544846 
	C84.244316,175.993729 85.131050,176.442612 86.035034,176.993195 
	C86.035034,176.993195 86.135178,176.968460 86.460121,177.535110 
	C89.973938,179.630951 93.487762,181.726791 97.405838,184.328384 
	C98.006432,184.532547 98.607025,184.736710 99.622604,185.453308 
	C104.752197,187.811401 109.881790,190.169495 115.485085,192.957413 
	C116.100815,193.039078 116.716545,193.120728 117.818481,193.760849 
	C121.545967,194.919937 125.273453,196.079010 129.663132,197.685425 
	C130.182724,197.770874 130.702332,197.856308 131.749329,198.385910 
	C135.166092,199.063919 138.582840,199.741913 142.622330,200.812607 
	C143.104797,200.809555 143.587250,200.806503 144.601044,201.184311 
	C145.674698,201.220673 146.748367,201.257034 148.576706,201.647766 
	C149.399506,201.685730 150.222305,201.723709 151.722748,202.173996 
	C154.815201,202.283310 157.907669,202.392624 161.788086,202.824432 
	C163.192261,202.745331 164.596420,202.666245 166.892990,202.857697 
	C172.594315,202.321152 178.295654,201.784592 184.483810,201.413132 
	C184.633911,201.330490 184.784027,201.247849 185.408325,201.415161 
	C186.241913,201.199265 187.075485,200.983368 188.710205,200.885452 
	C189.210663,200.699829 189.711105,200.514191 190.932053,200.556931 
	C194.264572,199.645844 197.597107,198.734741 201.676437,197.846558 
	C202.116959,197.628555 202.557465,197.410538 203.699142,197.332306 
	C208.966461,195.462891 214.233780,193.593475 219.650894,191.670898 
	C221.767365,194.770370 223.881500,197.866394 226.063904,201.581985 
	C226.450821,202.053772 226.837738,202.525558 227.239761,203.505371 
	C227.463394,203.753677 227.687012,204.001999 228.010666,204.846146 
	C228.690506,205.563751 229.370331,206.281357 230.019577,207.683945 
	C232.666763,210.479980 235.313965,213.276016 238.178329,216.670013 
	C239.168747,217.442322 240.159164,218.214630 241.246735,219.424759 
	C241.423218,219.716309 241.679855,219.836060 242.030762,219.989227 
	C242.030762,219.989227 242.235245,219.966568 242.276443,220.331772 
	C242.276443,220.331772 242.551331,220.574753 242.551331,220.574753 
	C242.551331,220.574753 242.916519,220.538986 243.313797,221.096848 
	C243.920242,221.388260 244.526703,221.679688 245.463531,222.544891 
	C259.718811,231.800507 274.966675,231.260269 289.615173,220.948608 
	C290.072144,220.568176 290.529114,220.187729 291.473663,219.784439 
	C291.809082,219.642624 291.991730,219.390228 292.001862,219.000122 
	C292.001862,219.000122 292.029144,219.021072 292.692657,218.869522 
	C305.003906,210.085190 314.414551,198.674896 322.600250,186.105865 
	C325.315155,181.937164 325.823792,178.019394 322.498108,173.296158 
	C316.936493,170.247192 314.502441,174.871628 311.349091,177.808823 
	C303.601685,185.025085 296.141052,192.601334 287.921722,199.235779 
	C284.083984,202.333557 278.755768,203.584839 273.733826,205.602539 
	C273.733826,205.602539 273.416382,205.803879 272.713654,205.374481 
	C269.199158,204.746140 265.684631,204.117813 261.756866,203.196548 
	C261.141754,203.012772 260.526611,202.828995 259.588196,202.418015 
	C259.588196,202.418015 259.216553,202.552292 258.723846,202.277084 
	C257.919586,201.822052 257.115356,201.367020 256.157471,200.218048 
	C254.299438,198.143036 252.441422,196.068024 250.582245,193.619125 
	C250.462875,193.361679 250.261368,193.237885 250.004166,193.059006 
	C250.004166,193.059006 249.815582,193.031799 249.696869,192.345749 
	C248.653549,190.454346 247.716873,188.493790 246.544632,186.685989 
	C244.126709,182.957031 245.061996,180.717453 248.889450,178.406998 
	C255.710999,174.289154 262.314087,169.757690 268.712799,165.001358 
	C284.001709,153.636734 298.254425,141.204697 307.878387,124.357674 
	C317.172791,108.087547 316.075623,91.641830 304.979767,80.023628 
	C304.979767,80.023628 304.888672,80.011223 304.782013,79.547264 
	C304.606781,79.244942 304.344513,79.087578 303.995697,79.003967 
	C303.995697,79.003967 303.924530,79.006485 303.792419,78.561554 
	C303.598755,78.274979 303.329987,78.150482 302.718079,77.557854 
	C301.120789,76.679443 299.523468,75.801033 297.515778,74.374443 
	C294.658966,73.545746 291.802124,72.717049 288.448578,71.426025 
	C287.302124,71.320335 286.155670,71.214645 284.379608,70.610260 
	C277.164459,69.390968 270.445953,70.998428 263.374481,74.279518 
	C263.187622,74.380760 263.000732,74.482002 262.501434,74.470268 
	C262.259796,74.556877 262.139648,74.728722 261.422394,75.097267 
	C258.954346,76.560219 256.486298,78.023170 253.414810,79.543076 
	C252.236526,80.662170 251.058243,81.781273 249.997742,82.930351 
	C249.997742,82.930351 249.900421,82.857544 249.211441,82.963547 
	C245.602417,86.316628 241.993393,89.669708 237.882019,93.501190 
	C236.391357,95.673920 234.900696,97.846649 232.856277,100.492851 
	C230.965790,104.006195 229.075317,107.519531 226.975189,111.107979 
	C226.975189,111.107979 226.998276,111.329033 226.729858,111.316521 
	C226.729858,111.316521 226.604462,111.550751 226.604462,111.550751 
	C226.604462,111.550751 226.824371,111.700554 226.372879,112.325508 
	C225.381287,114.554756 224.389694,116.784004 223.002686,119.690063 
	C222.356064,122.125038 221.709457,124.560005 220.762131,127.455688 
	C220.802414,127.981003 220.842682,128.506317 220.436325,129.618118 
	C220.345688,130.093353 220.255051,130.568573 219.667160,131.598694 
	C218.793259,137.222961 217.919357,142.847244 216.557053,148.949310 
	C216.581711,151.682068 216.606384,154.414841 216.532394,157.983429 
	C216.630539,159.661026 216.728683,161.338623 216.655014,163.617966 
	C216.683319,164.035049 216.711624,164.452148 216.383179,165.504028 
	C215.207916,167.021408 214.318207,168.986588 212.794800,169.957962 
	C210.071976,171.694138 206.967041,172.831024 203.207092,174.197998 
	C202.701508,174.383728 202.195923,174.569443 201.513016,174.570633 
	C201.301392,174.635330 201.235992,174.771210 200.481186,175.046097 
	C194.339447,176.417511 188.197708,177.788925 181.233200,179.117752 
	C180.422028,179.255066 179.610840,179.392380 177.947296,179.236069 
	C171.360260,179.314667 164.773209,179.393265 157.358139,179.225174 
	C156.501328,179.161087 155.644501,179.096985 154.603363,178.633392 
	C154.085922,178.756546 153.568497,178.879700 152.203171,179.005280 
	C150.512711,178.988831 148.822266,178.972382 146.749100,178.335922 
	C143.826584,177.422333 140.917313,176.463440 137.978973,175.603928 
	C130.309677,173.360458 122.627632,171.160477 114.326164,168.584686 
	C111.265961,167.305908 108.205765,166.027115 104.753586,164.164124 
	C101.128059,162.447250 97.502533,160.730392 93.518646,158.565475 
	C93.008850,158.119965 92.499062,157.674469 91.937469,157.011322 
	C91.937469,157.011322 91.723091,157.075256 91.461014,156.616196 
	C90.980751,156.433197 90.500488,156.250198 89.998138,155.976288 
	C89.998138,155.976288 89.906013,155.992691 89.755920,155.600281 
	C89.554909,155.352600 89.301399,155.273880 88.812492,155.049377 
	C88.812492,155.049377 88.448608,155.059998 88.133308,154.540298 
	C80.095673,149.082153 72.058037,143.624008 63.682446,137.607773 
	C63.029682,137.032059 62.376923,136.456360 61.811512,135.294556 
	C61.725719,134.912750 61.639923,134.530960 61.942249,133.527542 
	C64.165543,128.776306 66.448517,124.051811 68.593971,119.265678 
	C70.436180,115.156029 69.331230,112.249908 64.647560,110.604401 
	C64.517616,110.339539 64.305153,110.202446 63.678619,109.575920 
	C63.490700,109.437248 63.302780,109.298584 62.992825,108.594933 
	C58.573391,104.832085 58.573391,104.832085 56.070896,108.134735 
	C56.070896,108.134735 56.105633,108.332352 55.598465,108.645355 
	C55.228676,109.758774 54.858891,110.872192 54.145996,112.539856 
	C54.108955,112.753960 54.071918,112.968056 53.664528,113.319000 
	C53.455135,113.508110 53.352139,113.743774 53.025791,114.489273 
	C53.013298,114.678413 53.000801,114.867546 52.625896,115.432076 
	C52.517212,115.921265 52.408527,116.410454 52.069996,117.099060 
	C52.069996,117.099060 52.045036,117.402328 51.609016,117.577576 
	C51.501911,118.013672 51.394810,118.449768 50.998352,119.344162 
	C50.980438,119.523933 50.962524,119.703712 50.560482,120.154343 
	C50.332401,120.409470 50.260235,120.702934 50.087311,121.190315 
M206.348419,92.510612 
	C205.565338,92.484497 204.782242,92.458382 203.238464,92.195061 
	C202.447784,92.252541 201.657120,92.310013 200.111984,92.169098 
	C194.610764,92.419785 190.568192,94.884178 187.753540,100.521477 
	C187.295700,102.359299 186.837875,104.197121 186.100266,106.795937 
	C186.191406,107.859596 186.282547,108.923248 186.166992,110.592087 
	C186.426453,111.370728 186.685913,112.149368 186.945740,113.657295 
	C188.181946,115.378944 189.234451,117.276756 190.686676,118.791290 
	C196.500595,124.854645 205.955490,124.967995 212.236160,119.183159 
	C218.591354,113.329666 219.330292,105.002464 214.011749,98.237305 
	C213.573151,97.824181 213.134552,97.411049 212.566269,96.417290 
	C211.563873,95.799530 210.561462,95.181778 209.179367,93.998466 
	C208.346863,93.666481 207.514359,93.334496 206.348419,92.510612 
M144.414520,92.271439 
	C143.617874,92.317093 142.821228,92.362740 141.252701,92.180939 
	C135.210602,92.522240 130.715881,95.076065 128.085754,101.616661 
	C127.758965,104.370316 127.432175,107.123962 127.080635,110.623390 
	C127.254684,111.085670 127.428734,111.547943 127.423775,112.339157 
	C127.423180,112.657570 127.581985,112.809372 128.029999,113.512665 
	C130.741959,119.727455 135.569427,123.234818 142.249786,123.404205 
	C148.313782,123.557968 153.024673,120.539299 156.119659,115.282829 
	C159.429581,109.661331 158.480225,102.094528 154.107361,98.121605 
	C153.006241,97.060883 151.905121,96.000168 150.637146,94.315575 
	C149.640854,93.889877 148.644562,93.464172 147.353271,92.560547 
	C146.632111,92.538963 145.910934,92.517380 144.414520,92.271439 
M176.418869,12.033005 
	C173.449890,12.286131 170.424805,12.259590 167.521927,12.842101 
	C156.536636,15.046471 148.892761,22.710260 140.899551,29.673393 
	C127.512741,41.335079 114.348518,53.252571 100.943375,64.892838 
	C90.041679,74.359245 78.889137,83.536179 67.919479,92.925194 
	C63.406826,96.787613 64.191833,102.952400 69.407150,105.685959 
	C71.323387,106.690323 73.295380,107.588409 75.242935,108.532921 
	C82.549995,112.076591 86.266525,117.757393 86.001190,126.028145 
	C85.819611,131.688034 85.918953,137.358566 85.968849,143.023682 
	C86.004234,147.040939 87.550049,149.884979 92.089935,149.807251 
	C96.626831,149.729584 98.000671,146.858887 97.983246,142.823532 
	C97.953018,135.824982 97.828781,128.822372 98.014633,121.828682 
	C98.185852,115.385551 95.676994,110.176491 91.276123,105.766785 
	C88.500122,102.985214 85.510162,100.417175 81.630463,96.846024 
	C83.880821,95.088028 85.892952,93.638603 87.769012,92.030434 
	C98.998825,82.404190 110.213829,72.760490 121.401939,63.085796 
	C134.098450,52.106754 146.451736,40.701622 159.550613,30.227566 
	C167.943466,23.516518 179.712708,21.837109 189.014145,29.571812 
	C199.096878,37.956219 209.164459,46.358879 219.252182,54.737282 
	C225.510696,59.935303 231.765640,65.138359 238.079254,70.268936 
	C241.081528,72.708633 244.091736,72.162102 246.446533,69.392685 
	C248.685623,66.759361 248.572922,63.914738 245.932159,61.403671 
	C244.483765,60.026413 243.140915,58.525784 241.609177,57.250500 
	C228.068939,45.977272 214.480469,34.761982 200.941254,23.487514 
	C194.010468,17.716057 187.232651,11.690844 176.418869,12.033005 
M123.500252,234.830322 
	C158.811157,234.853912 194.122070,234.878220 229.432983,234.899033 
	C231.264984,234.900101 233.508636,235.534607 234.837784,234.709625 
	C237.144394,233.277969 240.022995,231.162140 240.475204,228.896759 
	C240.791962,227.309937 237.833344,224.251740 235.679764,223.208435 
	C233.302124,222.056595 230.173843,222.218460 227.371841,222.213852 
	C187.563904,222.148315 147.755798,222.172714 107.947823,222.120544 
	C100.058342,222.110214 97.129013,219.118378 97.021446,211.237656 
	C96.937325,205.075775 97.007614,198.911545 96.898209,192.750336 
	C96.829475,188.879440 94.896919,186.344116 90.890358,186.196503 
	C86.620758,186.039200 85.143318,188.860641 84.982513,192.649124 
	C84.714806,198.956024 84.207664,205.268173 84.293312,211.571442 
	C84.468521,224.467300 92.070503,233.317734 104.528893,234.708008 
	C110.450279,235.368805 116.505775,234.827866 123.500252,234.830322 
M55.234093,178.687714 
	C57.015865,177.778976 58.797642,176.870255 59.909458,176.303207 
	C55.076977,171.480392 50.681393,167.093613 46.898445,163.318237 
	C43.044601,167.319107 38.968121,171.551102 34.744564,175.935791 
	C36.815445,177.209534 39.822670,178.429672 41.945236,180.539719 
	C44.118275,182.699921 45.424694,185.731903 47.122200,188.400772 
	C49.958538,184.802994 52.258469,181.885651 55.234093,178.687714 
M10.236703,167.008926 
	C10.932379,166.971451 11.927034,167.216843 12.274329,166.849762 
	C14.260242,164.750793 16.092194,162.506119 18.079664,160.190643 
	C15.846261,157.799835 13.349634,155.127258 10.853007,152.454681 
	C11.477049,153.221893 12.101089,153.989105 12.725130,154.756317 
	C9.955497,156.928589 7.185863,159.100861 4.698123,161.052032 
	C5.864825,162.257675 7.877530,164.337540 10.236703,167.008926 
M17.892462,132.887955 
	C19.608971,135.033707 21.325480,137.179459 22.645864,138.830032 
	C24.828959,136.781754 26.584232,135.134872 28.318733,133.507492 
	C26.699677,131.940170 24.853167,130.152664 22.960289,128.320282 
	C21.468237,129.641632 19.904181,131.026749 17.892462,132.887955 
z"/>
<path fill="#7FCEF1" opacity="1.000000" stroke="none" 
	d="
M176.882233,12.036764 
	C187.232651,11.690844 194.010468,17.716057 200.941254,23.487514 
	C214.480469,34.761982 228.068939,45.977272 241.609177,57.250500 
	C243.140915,58.525784 244.483765,60.026413 245.932159,61.403671 
	C248.572922,63.914738 248.685623,66.759361 246.446533,69.392685 
	C244.091736,72.162102 241.081528,72.708633 238.079254,70.268936 
	C231.765640,65.138359 225.510696,59.935303 219.252182,54.737282 
	C209.164459,46.358879 199.096878,37.956219 189.014145,29.571812 
	C179.712708,21.837109 167.943466,23.516518 159.550613,30.227566 
	C146.451736,40.701622 134.098450,52.106754 121.401939,63.085796 
	C110.213829,72.760490 98.998825,82.404190 87.769012,92.030434 
	C85.892952,93.638603 83.880821,95.088028 81.630463,96.846024 
	C85.510162,100.417175 88.500122,102.985214 91.276123,105.766785 
	C95.676994,110.176491 98.185852,115.385551 98.014633,121.828682 
	C97.828781,128.822372 97.953018,135.824982 97.983246,142.823532 
	C98.000671,146.858887 96.626831,149.729584 92.089935,149.807251 
	C87.550049,149.884979 86.004234,147.040939 85.968849,143.023682 
	C85.918953,137.358566 85.819611,131.688034 86.001190,126.028145 
	C86.266525,117.757393 82.549995,112.076591 75.242935,108.532921 
	C73.295380,107.588409 71.323387,106.690323 69.407150,105.685959 
	C64.191833,102.952400 63.406826,96.787613 67.919479,92.925194 
	C78.889137,83.536179 90.041679,74.359245 100.943375,64.892838 
	C114.348518,53.252571 127.512741,41.335079 140.899551,29.673393 
	C148.892761,22.710260 156.536636,15.046471 167.521927,12.842101 
	C170.424805,12.259590 173.449890,12.286131 176.882233,12.036764 
z"/>
<path fill="#0B377C" opacity="1.000000" stroke="none" 
	d="
M241.149582,218.986938 
	C240.159164,218.214630 239.168747,217.442322 238.211975,216.045380 
	C238.928802,210.928299 237.095306,209.044159 230.050156,206.998978 
	C229.370331,206.281357 228.690506,205.563751 227.922775,204.302582 
	C227.724167,203.430847 227.520752,203.176971 227.224640,202.997360 
	C226.837738,202.525558 226.450821,202.053772 226.033142,200.882446 
	C224.560760,196.473251 223.119125,192.763596 221.580826,188.805222 
	C214.877899,191.830566 208.937927,194.511536 202.997971,197.192535 
	C202.557465,197.410538 202.116959,197.628555 201.032593,197.588440 
	C196.996368,198.329727 193.603958,199.329132 190.211563,200.328552 
	C189.711105,200.514191 189.210663,200.699829 188.095535,200.609131 
	C186.631958,200.610291 185.783051,200.887741 184.934143,201.165207 
	C184.784027,201.247849 184.633911,201.330490 184.236847,200.958710 
	C183.512451,199.796265 183.035034,199.088226 182.557617,198.380188 
	C179.178116,202.255630 174.863815,199.564423 171.014130,200.125854 
	C169.260605,200.381592 167.666840,201.732819 166.000595,202.587158 
	C164.596420,202.666245 163.192261,202.745331 161.291107,202.353485 
	C158.788635,200.889572 156.757782,199.944260 154.783295,198.893066 
	C151.367859,197.074738 150.831024,198.904526 151.045105,201.761688 
	C150.222305,201.723709 149.399506,201.685730 148.000854,201.280212 
	C146.306564,200.876266 145.188141,200.839859 144.069717,200.803467 
	C143.587250,200.806503 143.104797,200.809555 142.193817,200.319244 
	C140.517059,198.644897 137.202805,199.115479 138.502213,195.724426 
	C138.569656,195.548386 136.253143,194.458847 135.046524,193.794601 
	C134.816864,194.111282 134.587219,194.427948 134.357559,194.744629 
	C135.011032,195.670135 135.664490,196.595657 136.614914,197.941757 
	C134.461182,197.941757 132.841553,197.941757 131.221924,197.941757 
	C130.702332,197.856308 130.182724,197.770874 129.213104,197.194336 
	C123.421448,193.842285 128.851685,192.119019 129.427338,189.187515 
	C126.607948,189.479156 124.036652,190.264923 121.522202,191.203049 
	C120.077957,191.741898 118.725868,192.527740 117.332283,193.202393 
	C116.716545,193.120728 116.100815,193.039078 115.244415,192.382477 
	C115.076584,184.919388 109.430191,188.522949 106.028305,187.399277 
	C107.397423,184.544968 110.042015,181.507767 105.478409,180.201294 
	C105.470222,180.679718 105.462036,181.158127 105.453850,181.636551 
	C103.371773,182.737991 101.289696,183.839432 99.207626,184.940872 
	C98.607025,184.736710 98.006432,184.532547 97.160889,183.733978 
	C95.600372,177.102905 90.661903,177.395340 86.135178,176.968460 
	C86.135178,176.968460 86.035034,176.993195 85.968277,176.615173 
	C84.973694,175.820221 84.045860,175.403259 83.118034,174.986313 
	C82.199844,174.420975 81.281662,173.855652 80.063377,172.848694 
	C79.559402,172.204163 79.316605,172.073578 79.034889,172.015320 
	C79.034889,172.015320 78.991722,172.018539 78.955498,171.641800 
	C77.246750,170.189835 75.574226,169.114609 73.901703,168.039368 
	C67.467369,162.378632 60.886135,156.873108 54.665867,150.986191 
	C51.902878,148.371277 49.850174,148.186478 47.079456,150.686981 
	C44.260338,153.231201 41.223518,155.544083 38.197624,157.847382 
	C29.787313,164.249252 28.476299,164.173462 20.398722,156.511414 
	C20.752256,155.597000 21.139036,155.021698 21.483383,155.046066 
	C29.500715,155.613419 35.172451,151.386734 40.549152,146.170883 
	C42.467590,144.309845 45.145393,143.231583 47.906590,141.829407 
	C52.488964,139.559357 55.604630,142.388138 59.095909,144.272430 
	C59.800571,145.052200 60.373501,145.569077 61.111816,146.385529 
	C64.459953,149.139267 67.642700,151.593414 70.921539,154.377228 
	C72.644478,155.825806 74.271317,156.944702 75.959610,158.395493 
	C77.021111,159.463120 78.021164,160.198853 79.241295,160.974640 
	C79.461372,161.014679 79.906685,161.057678 79.975708,161.370483 
	C80.702728,162.106522 81.360725,162.529739 82.224030,163.225555 
	C84.565147,164.401169 86.700974,165.304184 88.989044,166.445404 
	C89.733337,167.141907 90.325378,167.600189 90.990631,168.388916 
	C92.385704,169.460098 93.707573,170.200851 95.249023,170.975098 
	C95.468605,171.008606 95.908951,171.067368 95.985794,171.406143 
	C96.512054,172.206711 96.883202,172.808212 97.422142,173.110229 
	C122.275093,187.037781 148.713806,194.358536 177.388046,191.869965 
	C180.983276,191.557938 184.475616,190.060501 188.379684,189.080750 
	C189.838699,188.728287 190.933670,188.407425 192.425171,188.061005 
	C197.871414,186.403763 202.921158,184.772095 208.172195,183.401367 
	C209.621780,183.455750 210.870056,183.249222 212.478485,183.032837 
	C213.562851,183.013718 214.287048,183.004410 215.424835,182.984344 
	C217.217377,182.961960 218.596329,182.950348 220.185303,183.216614 
	C224.750626,184.621109 225.936905,188.315399 227.094284,191.935577 
	C230.367004,202.172394 238.062561,208.174408 247.053223,213.213989 
	C247.075500,213.434570 247.093597,213.877655 246.901688,214.163147 
	C246.562195,215.465057 246.414627,216.481476 246.267059,217.497879 
	C248.556046,217.468796 251.139847,220.554657 253.509537,216.875275 
	C255.544296,217.176758 257.162048,217.741119 258.755035,217.678284 
	C262.575897,217.527512 266.767059,219.807602 270.434387,216.116119 
	C271.514282,215.783432 272.273102,215.478394 273.419678,215.167664 
	C274.570435,215.257401 275.333466,215.352844 276.122925,215.765259 
	C277.614014,217.355804 279.078674,218.629379 280.706085,220.044464 
	C282.135559,216.639847 283.063843,214.428879 284.294464,212.093964 
	C285.396301,211.641891 286.195770,211.313751 287.352600,210.987045 
	C288.820038,210.053940 289.930145,209.119431 291.192017,207.879608 
	C296.487000,203.350357 301.630219,199.126419 307.139771,194.957733 
	C308.611938,195.580490 309.717712,196.147980 311.633423,197.131119 
	C304.836121,203.569382 300.163727,211.234360 291.563782,215.324600 
	C291.662018,216.104980 291.845581,217.563019 292.029144,219.021072 
	C292.029144,219.021072 292.001862,219.000122 291.799866,219.085266 
	C291.325562,219.317047 291.121643,219.529327 290.986084,219.807297 
	C290.529114,220.187729 290.072144,220.568176 289.152222,220.669434 
	C287.402405,220.182251 286.078033,219.680756 284.837952,219.839203 
	C283.221191,220.045776 281.673828,220.783676 280.092102,221.278519 
	C276.677948,222.346649 273.265259,223.419800 269.843842,224.464233 
	C266.449097,225.500519 263.044403,226.504150 259.248627,227.640472 
	C259.330109,226.036865 259.398376,224.693604 259.536713,221.971115 
	C254.421494,221.971115 249.777328,221.971115 245.133148,221.971115 
	C244.526703,221.679688 243.920242,221.388260 243.028015,220.694489 
	C242.597794,220.145386 242.428787,220.036865 242.235245,219.966568 
	C242.235245,219.966568 242.030762,219.989227 241.917755,219.716034 
	C241.627365,219.231949 241.408981,219.079987 241.149582,218.986938 
z"/>
<path fill="#7ECEF1" opacity="1.000000" stroke="none" 
	d="
M123.000381,234.830826 
	C116.505775,234.827866 110.450279,235.368805 104.528893,234.708008 
	C92.070503,233.317734 84.468521,224.467300 84.293312,211.571442 
	C84.207664,205.268173 84.714806,198.956024 84.982513,192.649124 
	C85.143318,188.860641 86.620758,186.039200 90.890358,186.196503 
	C94.896919,186.344116 96.829475,188.879440 96.898209,192.750336 
	C97.007614,198.911545 96.937325,205.075775 97.021446,211.237656 
	C97.129013,219.118378 100.058342,222.110214 107.947823,222.120544 
	C147.755798,222.172714 187.563904,222.148315 227.371841,222.213852 
	C230.173843,222.218460 233.302124,222.056595 235.679764,223.208435 
	C237.833344,224.251740 240.791962,227.309937 240.475204,228.896759 
	C240.022995,231.162140 237.144394,233.277969 234.837784,234.709625 
	C233.508636,235.534607 231.264984,234.900101 229.432983,234.899033 
	C194.122070,234.878220 158.811157,234.853912 123.000381,234.830826 
z"/>
<path fill="#0B367B" opacity="1.000000" stroke="none" 
	d="
M304.962036,80.113846 
	C316.075623,91.641830 317.172791,108.087547 307.878387,124.357674 
	C298.254425,141.204697 284.001709,153.636734 268.712799,165.001358 
	C262.314087,169.757690 255.710999,174.289154 248.889450,178.406998 
	C245.061996,180.717453 244.126709,182.957031 246.544632,186.685989 
	C247.716873,188.493790 248.653549,190.454346 249.352539,192.668350 
	C243.866501,193.261856 239.929626,191.105164 236.958466,186.678741 
	C236.953217,185.907928 236.944702,185.467499 236.957855,184.584152 
	C236.023392,178.775101 238.516937,174.392792 241.333984,169.866257 
	C244.791718,167.847870 247.925125,165.973495 251.336273,163.913849 
	C253.675858,162.441757 255.737686,161.154922 258.140564,159.888016 
	C259.003662,159.286896 259.525726,158.665863 260.338715,157.923889 
	C262.008331,156.815094 263.387024,155.827225 265.111023,154.865997 
	C265.979553,154.263657 266.502838,153.634659 267.241699,152.856140 
	C267.894348,152.417725 268.331451,152.128815 269.134003,151.867401 
	C270.306396,150.884415 271.113342,149.873947 272.016846,148.570618 
	C273.072327,147.520844 274.031281,146.763931 275.327393,145.984650 
	C276.516205,145.020279 277.367798,144.078278 278.490845,143.060913 
	C279.145874,142.599091 279.529510,142.212616 280.258148,141.832626 
	C282.697937,139.538773 284.792725,137.238434 287.145508,134.794861 
	C287.906769,134.045090 288.410095,133.438568 289.224365,132.756409 
	C290.040436,131.794693 290.545593,130.908585 291.285950,129.860687 
	C292.030334,129.145279 292.539490,128.591644 293.384369,127.983368 
	C294.175049,126.985298 294.630035,126.041840 295.059570,125.055656 
	C295.034088,125.012924 295.110870,125.076256 295.432068,125.009674 
	C296.115387,124.231331 296.477509,123.519562 297.004608,122.492508 
	C297.500275,120.808258 297.830994,119.439293 298.372314,117.966965 
	C298.814514,117.646889 298.996063,117.394180 299.477997,117.007797 
	C300.545135,115.302963 301.724396,113.745461 301.903076,112.080566 
	C303.045258,101.438148 303.967468,90.772110 304.962036,80.113846 
z"/>
<path fill="#0E609F" opacity="1.000000" stroke="none" 
	d="
M236.936188,185.027069 
	C236.944702,185.467499 236.953217,185.907928 236.703278,186.892334 
	C238.276627,190.552246 239.434921,194.557816 242.098877,196.574570 
	C246.045593,199.562469 249.847549,205.361359 256.311096,200.911987 
	C257.115356,201.367020 257.919586,201.822052 258.797119,202.776443 
	C257.096924,206.461426 254.580902,206.207275 251.620422,205.114136 
	C250.445663,204.680344 248.950363,205.114594 247.601013,205.153641 
	C248.305176,206.481720 248.785309,208.027969 249.791901,209.061539 
	C250.467850,209.755630 251.889374,209.723648 253.136581,210.320801 
	C254.857605,211.429657 256.419342,212.234238 258.210938,213.307312 
	C260.307190,214.021896 262.173584,214.467957 264.367706,214.932739 
	C265.132965,214.956421 265.570557,214.961380 266.241913,215.247070 
	C267.688263,215.733124 268.900787,215.938446 270.113342,216.143768 
	C266.767059,219.807602 262.575897,217.527512 258.755035,217.678284 
	C257.162048,217.741119 255.544296,217.176758 253.384460,216.682800 
	C252.627563,216.224701 252.374374,216.055771 252.007935,215.645020 
	C251.294189,214.886047 250.644043,214.443329 249.630219,213.986267 
	C248.542221,213.940491 247.817902,213.909073 247.093597,213.877655 
	C247.093597,213.877655 247.075500,213.434570 247.013123,212.867416 
	C246.642242,211.725174 246.474243,210.971954 246.004425,210.601410 
	C237.419479,203.830856 231.231888,195.283554 226.409912,185.512878 
	C225.649323,183.971680 222.187912,183.763336 219.975266,182.938736 
	C218.596329,182.950348 217.217377,182.961960 215.407227,182.704742 
	C214.945770,182.066818 214.915527,181.697769 215.187073,181.183548 
	C216.302032,180.672653 217.115219,180.306915 218.304718,179.968719 
	C220.889160,177.819092 224.602386,175.904083 225.035492,173.417694 
	C226.609909,164.378845 227.086441,155.148773 227.993484,145.570007 
	C228.363571,141.459351 228.717148,137.769501 229.069229,134.071182 
	C229.067749,134.062714 229.085434,134.058472 229.400482,134.004974 
	C230.123383,133.289627 230.531250,132.627762 230.956390,131.556213 
	C231.965286,127.427422 232.956894,123.708351 234.111755,119.675003 
	C235.499710,116.568832 236.724411,113.776947 238.111420,110.685059 
	C239.875809,107.937210 241.477875,105.489357 243.307755,103.025917 
	C243.535568,103.010338 243.991074,102.977135 244.244171,103.181381 
	C243.405899,106.086601 242.417999,108.834991 241.205368,111.480362 
	C235.847824,123.167908 232.268341,135.406387 231.105957,148.169006 
	C230.286850,157.162720 230.785950,157.208176 239.559097,157.301605 
	C239.807831,157.875778 239.882690,158.115616 239.928543,158.722534 
	C239.418564,160.928909 238.937592,162.768158 238.411987,164.778107 
	C242.804764,167.947113 246.886627,164.912033 251.058533,164.099121 
	C247.925125,165.973495 244.791718,167.847870 240.972382,169.899811 
	C235.522324,172.990860 235.342941,177.866852 235.112656,182.615677 
	C235.075195,183.388184 236.296631,184.221741 236.936188,185.027069 
z"/>
<path fill="#46ADD7" opacity="1.000000" stroke="none" 
	d="
M306.773407,194.902466 
	C301.630219,199.126419 296.487000,203.350357 290.866089,207.869232 
	C289.257355,209.104660 288.126312,210.045135 286.995270,210.985626 
	C286.195770,211.313751 285.396301,211.641891 283.965271,212.057022 
	C282.294769,212.464645 281.255798,212.785263 279.824768,213.072449 
	C278.278259,213.671387 277.123779,214.303741 276.007660,215.062531 
	C276.045990,215.188950 276.096497,215.448288 276.096497,215.448288 
	C275.333466,215.352844 274.570435,215.257401 273.274719,214.884460 
	C272.163239,214.401871 271.584412,214.196793 271.007629,213.610321 
	C272.040802,210.710312 273.071930,208.191666 274.103088,205.673035 
	C278.755768,203.584839 284.083984,202.333557 287.921722,199.235779 
	C296.141052,192.601334 303.601685,185.025085 311.349091,177.808823 
	C314.502441,174.871628 316.936493,170.247192 322.286652,173.745667 
	C316.974579,181.097580 311.873993,188.000015 306.773407,194.902466 
z"/>
<path fill="#1262A0" opacity="1.000000" stroke="none" 
	d="
M304.970886,80.068741 
	C303.967468,90.772110 303.045258,101.438148 301.903076,112.080566 
	C301.724396,113.745461 300.545135,115.302963 299.437073,116.595314 
	C299.350922,113.706169 299.656219,111.131836 300.005646,108.185410 
	C296.818726,109.355064 294.602356,110.168510 292.038910,111.109337 
	C291.430328,108.657036 290.972809,106.813469 290.455139,104.605087 
	C290.307861,103.514168 290.220764,102.788071 290.475677,101.972534 
	C293.875732,99.480927 295.168488,96.485153 293.231354,92.871330 
	C290.212616,87.239700 285.592957,84.039307 278.977448,83.932518 
	C276.958130,83.899918 274.948853,83.245361 272.902588,82.597885 
	C272.869507,82.133690 272.868835,81.947258 273.320251,81.827591 
	C276.150299,81.781700 278.528229,81.669060 281.340729,81.686142 
	C283.850494,81.865120 285.925659,81.914368 288.231567,82.246101 
	C289.081268,82.699638 289.695801,82.889412 290.320007,83.038795 
	C295.614899,84.306007 295.374939,84.333199 294.715149,78.937134 
	C294.569733,77.747612 296.793427,76.268417 297.926178,74.922623 
	C299.523468,75.801033 301.120789,76.679443 303.003235,78.015266 
	C303.492889,78.659569 303.704956,78.837509 303.924530,79.006485 
	C303.924530,79.006485 303.995697,79.003967 304.131042,79.207855 
	C304.455811,79.630249 304.663239,79.830078 304.888672,80.011223 
	C304.888672,80.011223 304.979767,80.023628 304.970886,80.068741 
z"/>
<path fill="#104492" opacity="1.000000" stroke="none" 
	d="
M154.165359,98.795570 
	C158.480225,102.094528 159.429581,109.661331 156.119659,115.282829 
	C153.024673,120.539299 148.313782,123.557968 142.249786,123.404205 
	C135.569427,123.234818 130.741959,119.727455 128.092819,112.988571 
	C128.155640,112.464485 128.274384,112.060883 128.724472,112.042946 
	C132.988571,112.016998 136.816483,111.803108 140.612686,112.059090 
	C144.384567,112.313423 146.201904,110.495094 147.866333,107.357407 
	C149.508896,104.260979 152.029800,101.630478 154.165359,98.795570 
z"/>
<path fill="#0F4291" opacity="1.000000" stroke="none" 
	d="
M214.040009,98.855057 
	C219.330292,105.002464 218.591354,113.329666 212.236160,119.183159 
	C205.955490,124.967995 196.500595,124.854645 190.686676,118.791290 
	C189.234451,117.276756 188.181946,115.378944 187.037491,113.383133 
	C187.129242,113.108963 187.376785,113.040855 187.737854,113.042953 
	C193.066360,112.661919 198.033813,112.278793 203.289017,111.877991 
	C204.030655,111.553284 204.484528,111.246254 205.244598,110.819321 
	C205.989426,109.765770 206.428040,108.832138 206.895752,107.541565 
	C206.966675,106.469650 207.008530,105.754669 207.394775,104.991440 
	C209.839447,102.913818 211.939728,100.884438 214.040009,98.855057 
z"/>
<path fill="#41A7D3" opacity="1.000000" stroke="none" 
	d="
M47.476578,141.796021 
	C45.145393,143.231583 42.467590,144.309845 40.549152,146.170883 
	C35.172451,151.386734 29.500715,155.613419 21.483383,155.046066 
	C21.139036,155.021698 20.752256,155.597000 20.219940,156.210205 
	C20.784988,154.905441 21.140448,152.918625 22.306353,151.720398 
	C30.049973,143.762146 37.967133,135.972748 46.562077,128.032104 
	C48.855743,127.172089 50.378448,126.317177 51.984871,125.670105 
	C53.622349,125.010513 55.342144,124.555290 56.983017,124.372971 
	C55.557220,128.480820 54.174301,132.226273 52.473873,136.017914 
	C51.433334,137.024918 50.710308,137.985703 49.725578,139.132385 
	C48.801441,140.144196 48.139008,140.970108 47.476578,141.796021 
z"/>
<path fill="#0C3F82" opacity="1.000000" stroke="none" 
	d="
M52.791382,135.971725 
	C54.174301,132.226273 55.557220,128.480820 57.240295,124.172516 
	C57.779476,122.779701 58.018497,121.949730 58.523682,120.913925 
	C59.527023,118.803947 60.264194,116.899803 61.294205,114.746765 
	C62.096321,112.718552 62.605591,110.939240 63.114861,109.159927 
	C63.302780,109.298584 63.490700,109.437248 63.843010,110.116074 
	C64.007401,110.656219 64.351768,110.969482 64.351768,110.969482 
	C64.351768,110.969482 64.817360,110.963249 64.817360,110.963249 
	C69.331230,112.249908 70.436180,115.156029 68.593971,119.265678 
	C66.448517,124.051811 64.165543,128.776306 61.577278,133.978180 
	C61.382923,134.912750 61.553543,135.396698 61.724159,135.880646 
	C62.376923,136.456360 63.029682,137.032059 63.821430,138.243973 
	C62.295002,140.589966 60.629589,142.299759 58.964180,144.009552 
	C55.604630,142.388138 52.488964,139.559357 47.906590,141.829407 
	C48.139008,140.970108 48.801441,140.144196 50.067417,139.127533 
	C51.377766,137.948425 52.084572,136.960068 52.791382,135.971725 
z"/>
<path fill="#65BDE4" opacity="1.000000" stroke="none" 
	d="
M54.896244,178.828003 
	C52.258469,181.885651 49.958538,184.802994 47.122200,188.400772 
	C45.424694,185.731903 44.118275,182.699921 41.945236,180.539719 
	C39.822670,178.429672 36.815445,177.209534 34.744564,175.935791 
	C38.968121,171.551102 43.044601,167.319107 46.898445,163.318237 
	C50.681393,167.093613 55.076977,171.480392 59.909458,176.303207 
	C58.797642,176.870255 57.015865,177.778976 54.896244,178.828003 
z"/>
<path fill="#4BB1D8" opacity="1.000000" stroke="none" 
	d="
M217.928406,179.941193 
	C217.115219,180.306915 216.302032,180.672653 214.869019,181.127289 
	C213.619537,181.324936 212.989914,181.433701 212.017181,181.426147 
	C210.439682,181.920029 209.205292,182.530243 207.970886,183.140442 
	C202.921158,184.772095 197.871414,186.403763 192.370453,187.715973 
	C191.033005,186.564453 190.146774,185.732376 188.588455,184.269302 
	C192.079971,182.651459 195.175949,181.356949 198.135178,179.802155 
	C200.580383,178.517426 204.221085,178.342422 204.021851,174.218460 
	C206.967041,172.831024 210.071976,171.694138 212.794800,169.957962 
	C214.318207,168.986588 215.207916,167.021408 216.704468,165.541443 
	C217.765869,166.352173 218.364655,167.453201 219.269897,167.843628 
	C223.853760,169.820648 224.281799,171.791000 220.922195,175.639435 
	C219.780197,176.947586 218.918289,178.500259 217.928406,179.941193 
z"/>
<path fill="#0D387C" opacity="1.000000" stroke="none" 
	d="
M307.139771,194.957733 
	C311.873993,188.000015 316.974579,181.097580 322.375977,174.069382 
	C325.823792,178.019394 325.315155,181.937164 322.600250,186.105865 
	C314.414551,198.674896 305.003906,210.085190 292.360901,218.945297 
	C291.845581,217.563019 291.662018,216.104980 291.563782,215.324600 
	C300.163727,211.234360 304.836121,203.569382 311.633423,197.131119 
	C309.717712,196.147980 308.611938,195.580490 307.139771,194.957733 
z"/>
<path fill="#46B4DD" opacity="1.000000" stroke="none" 
	d="
M272.868134,81.760834 
	C272.868835,81.947258 272.869507,82.133690 272.592529,82.623024 
	C271.906006,83.000900 271.497101,83.075867 270.786072,83.085541 
	C269.974579,83.298271 269.465210,83.576279 268.642670,83.885910 
	C267.924805,84.024879 267.520081,84.132225 266.735138,84.172455 
	C258.812164,85.851326 253.261276,90.642525 247.729797,96.022079 
	C244.181625,95.701729 245.150177,93.999329 245.968246,92.178749 
	C247.350037,89.103615 248.596863,85.967834 249.900421,82.857544 
	C249.900421,82.857544 249.997742,82.930351 250.309586,82.943199 
	C251.753708,81.799408 252.885986,80.642761 254.018265,79.486115 
	C256.486298,78.023170 258.954346,76.560219 261.906738,74.996834 
	C262.554626,74.822571 262.695557,74.718185 262.813873,74.583244 
	C263.000732,74.482002 263.187622,74.380760 263.781982,74.585434 
	C267.761566,76.323082 272.453003,76.340675 272.868134,81.760834 
z"/>
<path fill="#2081B9" opacity="1.000000" stroke="none" 
	d="
M218.304718,179.968735 
	C218.918289,178.500259 219.780197,176.947586 220.922195,175.639435 
	C224.281799,171.791000 223.853760,169.820648 219.269897,167.843628 
	C218.364655,167.453201 217.765869,166.352173 216.882843,165.224030 
	C216.711624,164.452148 216.683319,164.035049 217.125641,163.308075 
	C220.726593,162.192032 223.659180,161.153625 223.531021,157.103271 
	C223.267426,148.773285 219.063416,140.863037 220.860580,132.295792 
	C220.934647,131.942688 220.410095,131.463989 220.164413,131.043808 
	C220.255051,130.568573 220.345688,130.093353 220.842712,129.311523 
	C221.249084,129.004929 221.616577,128.998962 221.616577,128.998962 
	C221.616577,128.998962 221.984131,128.999390 222.288605,129.236786 
	C223.062820,133.156952 223.604065,136.832474 223.978333,140.524918 
	C224.248581,143.191177 224.069046,146.045517 227.976974,145.990799 
	C227.086441,155.148773 226.609909,164.378845 225.035492,173.417694 
	C224.602386,175.904083 220.889160,177.819092 218.304718,179.968735 
z"/>
<path fill="#0D387C" opacity="1.000000" stroke="none" 
	d="
M245.298340,222.257996 
	C249.777328,221.971115 254.421494,221.971115 259.536713,221.971115 
	C259.398376,224.693604 259.330109,226.036865 259.248627,227.640472 
	C263.044403,226.504150 266.449097,225.500519 269.843842,224.464233 
	C273.265259,223.419800 276.677948,222.346649 280.092102,221.278519 
	C281.673828,220.783676 283.221191,220.045776 284.837952,219.839203 
	C286.078033,219.680756 287.402405,220.182251 288.849213,220.696167 
	C274.966675,231.260269 259.718811,231.800507 245.298340,222.257996 
z"/>
<path fill="#4AAED5" opacity="1.000000" stroke="none" 
	d="
M203.614471,174.208221 
	C204.221085,178.342422 200.580383,178.517426 198.135178,179.802155 
	C195.175949,181.356949 192.079971,182.651459 188.588455,184.269302 
	C190.146774,185.732376 191.033005,186.564453 191.973938,187.741547 
	C190.933670,188.407425 189.838699,188.728287 188.140457,188.796249 
	C183.374573,188.953094 179.211945,189.362854 175.042343,189.398239 
	C174.705444,184.541565 178.536804,184.217514 181.269989,183.154480 
	C184.114349,182.048187 184.302139,180.991013 182.055969,179.160339 
	C188.197708,177.788925 194.339447,176.417511 200.964813,174.981796 
	C201.448425,174.917496 201.690338,174.755157 201.690338,174.755157 
	C202.195923,174.569443 202.701508,174.383728 203.614471,174.208221 
z"/>
<path fill="#1A78B3" opacity="1.000000" stroke="none" 
	d="
M88.836792,166.207184 
	C86.700974,165.304184 84.565147,164.401169 82.174210,162.904480 
	C81.248283,161.893112 80.577484,161.475403 79.906685,161.057678 
	C79.906685,161.057678 79.461372,161.014679 79.198624,160.637909 
	C77.923302,159.528625 76.910728,158.796127 75.898155,158.063614 
	C74.271317,156.944702 72.644478,155.825806 71.272858,154.236542 
	C74.020042,154.511414 76.512001,155.256622 79.280029,156.198212 
	C85.315445,159.074692 90.965462,162.041840 96.886612,164.297150 
	C99.340836,165.231918 102.375092,164.643860 105.145561,164.748352 
	C108.205765,166.027115 111.265961,167.305908 114.891747,168.916046 
	C115.974098,169.830795 116.490868,170.414169 116.660156,171.148499 
	C115.526131,171.474121 114.652061,171.964523 113.966644,171.774490 
	C107.347282,169.939163 100.786163,167.888443 94.144150,166.143875 
	C92.494385,165.710571 90.612167,166.162277 88.836792,166.207184 
z"/>
<path fill="#2275BA" opacity="1.000000" stroke="none" 
	d="
M154.136353,98.458588 
	C152.029800,101.630478 149.508896,104.260979 147.866333,107.357407 
	C146.201904,110.495094 144.384567,112.313423 140.612686,112.059090 
	C136.816483,111.803108 132.988571,112.016998 128.557739,112.007477 
	C127.940926,111.989944 127.602791,112.010216 127.602783,112.010216 
	C127.428734,111.547943 127.254684,111.085670 127.363388,110.026352 
	C128.377335,106.465103 130.444931,107.210297 132.656357,107.240623 
	C134.999069,107.272736 137.385056,106.430122 139.694077,105.767296 
	C141.044098,105.379753 142.439133,104.797890 143.527481,103.940033 
	C144.847076,102.899887 146.206299,101.644875 146.929749,100.177788 
	C147.928192,98.153107 147.182739,95.006126 150.804001,94.939445 
	C151.905121,96.000168 153.006241,97.060883 154.136353,98.458588 
z"/>
<path fill="#2B91C4" opacity="1.000000" stroke="none" 
	d="
M147.131805,178.955933 
	C148.822266,178.972382 150.512711,178.988831 152.862122,179.075470 
	C153.521057,179.145645 153.977051,179.330307 153.919312,179.671555 
	C150.816162,181.335342 147.753036,182.619156 144.733582,183.998489 
	C143.429031,184.594421 142.214645,185.387711 140.535858,186.078262 
	C133.071487,184.044067 126.030556,182.022949 118.992073,179.604385 
	C118.996307,178.149231 118.998093,177.091507 119.333473,176.028076 
	C120.111916,176.025391 120.556755,176.028427 121.067772,176.388687 
	C123.978119,177.827988 126.791534,179.712677 129.672943,179.823135 
	C135.472961,180.045441 141.310028,179.301315 147.131805,178.955933 
z"/>
<path fill="#38A2D1" opacity="1.000000" stroke="none" 
	d="
M181.644592,179.139038 
	C184.302139,180.991013 184.114349,182.048187 181.269989,183.154480 
	C178.536804,184.217514 174.705444,184.541565 174.576172,189.477371 
	C169.423126,189.897110 164.729263,189.863358 159.963501,189.503540 
	C159.017563,188.405594 158.143555,187.633698 156.733643,186.388519 
	C159.265503,185.626297 161.236862,185.327713 162.899109,184.446198 
	C164.440842,183.628647 165.652390,182.188416 167.456070,181.012665 
	C171.535095,180.511887 175.167389,180.020798 178.799667,179.529694 
	C179.610840,179.392380 180.422028,179.255066 181.644592,179.139038 
z"/>
<path fill="#3098C9" opacity="1.000000" stroke="none" 
	d="
M167.009323,181.022369 
	C165.652390,182.188416 164.440842,183.628647 162.899109,184.446198 
	C161.236862,185.327713 159.265503,185.626297 156.733643,186.388519 
	C158.143555,187.633698 159.017563,188.405594 159.555771,189.512573 
	C153.133087,188.595551 147.046188,187.343445 140.959305,186.091339 
	C142.214645,185.387711 143.429031,184.594421 144.733582,183.998489 
	C147.753036,182.619156 150.816162,181.335342 154.120514,179.592117 
	C154.379471,179.171432 154.787689,179.032883 154.787689,179.032883 
	C155.644501,179.096985 156.501328,179.161087 158.066910,179.540421 
	C161.520233,180.244568 164.264771,180.633469 167.009323,181.022369 
z"/>
<path fill="#257AAF" opacity="1.000000" stroke="none" 
	d="
M219.915787,131.321259 
	C220.410095,131.463989 220.934647,131.942688 220.860580,132.295792 
	C219.063416,140.863037 223.267426,148.773285 223.531021,157.103271 
	C223.659180,161.153625 220.726593,162.192032 217.211548,163.007202 
	C216.728683,161.338623 216.630539,159.661026 216.703918,157.134644 
	C216.932098,153.681091 216.988785,151.076294 217.045471,148.471512 
	C217.919357,142.847244 218.793259,137.222961 219.915787,131.321259 
z"/>
<path fill="#1A629D" opacity="1.000000" stroke="none" 
	d="
M59.095909,144.272430 
	C60.629589,142.299759 62.295002,140.589966 63.990410,138.523010 
	C72.058037,143.624008 80.095673,149.082153 87.923363,154.773102 
	C84.812706,154.340958 81.911995,153.676025 78.680496,152.863846 
	C74.495079,150.631561 70.758057,148.260788 66.727997,146.601959 
	C65.112617,145.937057 63.168182,141.930573 60.946426,146.085968 
	C60.373501,145.569077 59.800571,145.052200 59.095909,144.272430 
z"/>
<path fill="#57BBE3" opacity="1.000000" stroke="none" 
	d="
M128.599442,101.030411 
	C130.715881,95.076065 135.210602,92.522240 141.655060,92.649292 
	C142.570740,94.833321 143.381500,96.529259 143.497116,98.271324 
	C143.579849,99.518272 143.098480,101.526619 142.231720,101.981613 
	C139.209717,103.567955 136.049286,106.989296 132.580078,102.278259 
	C131.914932,101.375008 129.959579,101.421867 128.599442,101.030411 
z"/>
<path fill="#277EC0" opacity="1.000000" stroke="none" 
	d="
M207.050385,105.039688 
	C207.008530,105.754669 206.966675,106.469650 206.571716,107.628487 
	C205.791885,109.027969 205.365143,109.983597 204.938400,110.939224 
	C204.484528,111.246254 204.030655,111.553284 202.993408,111.612389 
	C197.340942,110.919579 192.271851,110.474701 186.996399,110.001907 
	C186.790024,109.973991 186.373703,109.986908 186.373703,109.986908 
	C186.282547,108.923248 186.191406,107.859596 186.625183,106.416611 
	C188.736313,106.305870 190.447601,106.282364 191.885239,106.897957 
	C196.148682,108.723526 198.723343,107.339890 200.403122,103.087357 
	C201.146606,103.039192 201.571472,103.012321 202.223846,103.258568 
	C205.361359,104.378639 205.456909,102.447685 206.106888,100.368797 
	C206.760468,98.278435 208.369003,96.486649 209.559067,94.564026 
	C210.561462,95.181778 211.563873,95.799530 212.310303,96.778107 
	C210.386353,99.772514 208.718369,102.406097 207.050385,105.039688 
z"/>
<path fill="#359ECD" opacity="1.000000" stroke="none" 
	d="
M237.949112,110.985062 
	C236.724411,113.776947 235.499710,116.568832 233.764236,119.714958 
	C231.501678,120.712502 229.749878,121.355797 227.998260,121.665894 
	C227.997986,120.888451 227.997513,120.444199 228.161407,119.679245 
	C230.970657,116.168755 230.718414,113.375977 227.184830,111.032875 
	C229.075317,107.519531 230.965790,104.006195 233.494904,100.278412 
	C237.814606,101.830338 236.025299,104.552139 235.028030,106.772652 
	C233.513779,110.144356 234.929474,111.002434 237.949112,110.985062 
z"/>
<path fill="#3F9DD1" opacity="1.000000" stroke="none" 
	d="
M128.342590,101.323532 
	C129.959579,101.421867 131.914932,101.375008 132.580078,102.278259 
	C136.049286,106.989296 139.209717,103.567955 142.231720,101.981613 
	C143.098480,101.526619 143.579849,99.518272 143.497116,98.271324 
	C143.381500,96.529259 142.570740,94.833321 142.041016,92.763016 
	C142.821228,92.362740 143.617874,92.317093 144.999405,92.548157 
	C146.272278,92.896080 146.960281,92.967278 147.648270,93.038475 
	C148.644562,93.464172 149.640854,93.889877 150.720581,94.627510 
	C147.182739,95.006126 147.928192,98.153107 146.929749,100.177788 
	C146.206299,101.644875 144.847076,102.899887 143.527481,103.940033 
	C142.439133,104.797890 141.044098,105.379753 139.694077,105.767296 
	C137.385056,106.430122 134.999069,107.272736 132.656357,107.240623 
	C130.444931,107.210297 128.377335,106.465103 127.375763,109.653458 
	C127.432175,107.123962 127.758965,104.370316 128.342590,101.323532 
z"/>
<path fill="#328BBC" opacity="1.000000" stroke="none" 
	d="
M146.940460,178.645920 
	C141.310028,179.301315 135.472961,180.045441 129.672943,179.823135 
	C126.791534,179.712677 123.978119,177.827988 121.500694,176.379608 
	C124.082443,175.870651 126.297440,175.728012 128.512436,175.585358 
	C128.534546,175.126495 128.556671,174.667618 128.578796,174.208740 
	C124.721741,173.138351 120.864693,172.067963 117.007637,170.997559 
	C116.490868,170.414169 115.974098,169.830795 115.204002,169.095276 
	C122.627632,171.160477 130.309677,173.360458 137.978973,175.603928 
	C140.917313,176.463440 143.826584,177.422333 146.940460,178.645920 
z"/>
<path fill="#45ACD7" opacity="1.000000" stroke="none" 
	d="
M273.320251,81.827591 
	C272.453003,76.340675 267.761566,76.323082 264.097595,74.540565 
	C270.445953,70.998428 277.164459,69.390968 284.693665,71.079643 
	C285.007690,71.549026 285.008881,71.989449 284.754761,71.992493 
	C284.331207,71.995743 284.161774,71.995941 283.641541,71.841141 
	C280.682037,70.916527 277.996307,69.807869 276.994293,71.655449 
	C278.614655,75.756622 279.760406,78.656517 280.906158,81.556412 
	C278.528229,81.669060 276.150299,81.781700 273.320251,81.827591 
z"/>
<path fill="#196DA7" opacity="1.000000" stroke="none" 
	d="
M79.011292,153.011078 
	C81.911995,153.676025 84.812706,154.340958 88.081009,155.032959 
	C88.448608,155.059998 88.812492,155.049377 89.035599,155.338516 
	C89.450607,155.791641 89.666374,155.913315 89.906013,155.992691 
	C89.906013,155.992691 89.998138,155.976288 90.150497,156.238556 
	C90.776268,156.692322 91.249680,156.883789 91.723091,157.075256 
	C91.723091,157.075256 91.937469,157.011322 92.108681,157.339233 
	C92.812263,158.115936 93.344635,158.564728 93.877007,159.013519 
	C97.502533,160.730392 101.128059,162.447250 104.949570,164.456238 
	C102.375092,164.643860 99.340836,165.231918 96.886612,164.297150 
	C90.965462,162.041840 85.315445,159.074692 79.279579,155.824203 
	C79.005814,154.506226 79.008553,153.758652 79.011292,153.011078 
z"/>
<path fill="#57BCE3" opacity="1.000000" stroke="none" 
	d="
M201.996353,102.985458 
	C201.571472,103.012321 201.146606,103.039192 200.045166,103.080772 
	C196.399429,105.533447 193.711197,104.313416 191.119019,102.411926 
	C190.112488,101.673592 189.209320,100.794342 188.259079,99.979279 
	C190.568192,94.884178 194.610764,92.419785 200.289581,92.485016 
	C200.318878,93.879074 199.867584,95.023476 200.085831,96.021454 
	C200.530548,98.055031 201.336212,100.009666 201.990128,102.243996 
	C201.987106,102.491165 201.996353,102.985458 201.996353,102.985458 
z"/>
<path fill="#0E5191" opacity="1.000000" stroke="none" 
	d="
M256.234283,200.565018 
	C249.847549,205.361359 246.045593,199.562469 242.098877,196.574570 
	C239.434921,194.557816 238.276627,190.552246 236.700043,187.222717 
	C239.929626,191.105164 243.866501,193.261856 249.411896,193.011383 
	C249.815582,193.031799 250.004166,193.059006 250.103180,193.267685 
	C250.345963,193.636246 250.473038,193.808456 250.583405,193.993011 
	C252.441422,196.068024 254.299438,198.143036 256.234283,200.565018 
z"/>
<path fill="#72BEE2" opacity="1.000000" stroke="none" 
	d="
M10.063469,166.713165 
	C7.877530,164.337540 5.864825,162.257675 4.698123,161.052032 
	C7.185863,159.100861 9.955497,156.928589 12.725130,154.756317 
	C12.101089,153.989105 11.477049,153.221893 10.853007,152.454681 
	C13.349634,155.127258 15.846261,157.799835 18.079664,160.190643 
	C16.092194,162.506119 14.260242,164.750793 12.274329,166.849762 
	C11.927034,167.216843 10.932379,166.971451 10.063469,166.713165 
z"/>
<path fill="#2889BE" opacity="1.000000" stroke="none" 
	d="
M227.997040,119.999954 
	C227.997513,120.444199 227.997986,120.888451 227.702362,121.897964 
	C225.554474,126.680199 224.508011,130.781769 229.070709,134.079651 
	C228.717148,137.769501 228.363571,141.459351 227.993484,145.570007 
	C224.069046,146.045517 224.248581,143.191177 223.978333,140.524918 
	C223.604065,136.832474 223.062820,133.156952 222.273621,128.944778 
	C221.657059,127.941910 221.359955,127.468445 221.062836,126.994980 
	C221.709457,124.560005 222.356064,122.125038 223.531036,119.412125 
	C225.371933,119.422775 226.684479,119.711365 227.997040,119.999954 
z"/>
<path fill="#46AFD8" opacity="1.000000" stroke="none" 
	d="
M249.555939,82.910553 
	C248.596863,85.967834 247.350037,89.103615 245.968246,92.178749 
	C245.150177,93.999329 244.181625,95.701729 247.575928,96.323029 
	C246.616852,98.474236 245.433914,100.305740 244.165375,102.340836 
	C244.079758,102.544418 243.991074,102.977135 243.991074,102.977135 
	C243.991074,102.977135 243.535568,103.010338 242.912750,103.009705 
	C239.894394,103.055321 238.262497,102.518730 239.714035,99.631470 
	C240.996185,97.081146 241.237610,94.740784 238.384354,93.022781 
	C241.993393,89.669708 245.602417,86.316628 249.555939,82.910553 
z"/>
<path fill="#2C8BBF" opacity="1.000000" stroke="none" 
	d="
M283.992340,71.996140 
	C284.161774,71.995941 284.331207,71.995743 285.151154,72.004089 
	C286.849548,71.971207 287.897430,71.929779 288.945312,71.888351 
	C291.802124,72.717049 294.658966,73.545746 297.720978,74.648529 
	C296.793427,76.268417 294.569733,77.747612 294.715149,78.937134 
	C295.374939,84.333199 295.614899,84.306007 290.320007,83.038795 
	C289.695801,82.889412 289.081268,82.699638 288.220215,81.873375 
	C286.649567,78.144157 285.320953,75.070145 283.992340,71.996140 
z"/>
<path fill="#41A7D3" opacity="1.000000" stroke="none" 
	d="
M238.133179,93.261986 
	C241.237610,94.740784 240.996185,97.081146 239.714035,99.631470 
	C238.262497,102.518730 239.894394,103.055321 242.684937,103.025284 
	C241.477875,105.489357 239.875809,107.937210 238.111420,110.685059 
	C234.929474,111.002434 233.513779,110.144356 235.028030,106.772652 
	C236.025299,104.552139 237.814606,101.830338 233.771790,100.041672 
	C234.900696,97.846649 236.391357,95.673920 238.133179,93.261986 
z"/>
<path fill="#7BBFDE" opacity="1.000000" stroke="none" 
	d="
M18.116293,132.649918 
	C19.904181,131.026749 21.468237,129.641632 22.960289,128.320282 
	C24.853167,130.152664 26.699677,131.940170 28.318733,133.507492 
	C26.584232,135.134872 24.828959,136.781754 22.645864,138.830032 
	C21.325480,137.179459 19.608971,135.033707 18.116293,132.649918 
z"/>
<path fill="#0D387C" opacity="1.000000" stroke="none" 
	d="
M99.415115,185.197083 
	C101.289696,183.839432 103.371773,182.737991 105.453850,181.636551 
	C105.462036,181.158127 105.470222,180.679718 105.478409,180.201294 
	C110.042015,181.507767 107.397423,184.544968 106.028305,187.399277 
	C109.430191,188.522949 115.076584,184.919388 115.007561,192.167557 
	C109.881790,190.169495 104.752197,187.811401 99.415115,185.197083 
z"/>
<path fill="#379CCC" opacity="1.000000" stroke="none" 
	d="
M58.257519,121.119766 
	C58.018497,121.949730 57.779476,122.779701 57.283176,123.810127 
	C55.342144,124.555290 53.622349,125.010513 51.984871,125.670105 
	C50.378448,126.317177 48.855743,127.172089 46.858444,127.908356 
	C46.464874,127.717224 46.509159,127.553528 46.983601,127.060043 
	C47.603703,126.193588 47.793648,125.656929 47.983597,125.120270 
	C48.088371,124.875198 48.193146,124.630135 48.583485,124.023560 
	C48.869053,123.662033 49.007149,123.438354 49.007149,123.438354 
	C49.134872,123.130188 49.262600,122.822029 49.663940,122.057663 
	C49.937557,121.601471 50.026527,121.484230 50.026527,121.484230 
	C50.026527,121.484230 50.087311,121.190315 50.374603,120.955780 
	C50.852356,120.474487 50.946594,120.195229 50.944607,119.883484 
	C50.962524,119.703712 50.980438,119.523933 51.321041,118.988251 
	C51.777496,118.222343 51.911266,117.812332 52.045036,117.402328 
	C52.045036,117.402328 52.069996,117.099060 52.377312,116.830154 
	C52.785854,116.059731 52.887081,115.558205 52.988304,115.056686 
	C53.000801,114.867546 53.013298,114.678413 53.354630,114.254005 
	C53.683468,114.018738 54.009407,113.977455 54.335827,114.164963 
	C55.860668,116.608238 57.059093,118.863998 58.257519,121.119766 
z"/>
<path fill="#0D387C" opacity="1.000000" stroke="none" 
	d="
M203.348557,197.262421 
	C208.937927,194.511536 214.877899,191.830566 221.580826,188.805222 
	C223.119125,192.763596 224.560760,196.473251 225.999008,200.572662 
	C223.881500,197.866394 221.767365,194.770370 219.650894,191.670898 
	C214.233780,193.593475 208.966461,195.462891 203.348557,197.262421 
z"/>
<path fill="#41A7D3" opacity="1.000000" stroke="none" 
	d="
M58.523682,120.913925 
	C57.059093,118.863998 55.860668,116.608238 54.339558,113.966156 
	C54.016869,113.579849 54.034885,113.182159 54.034885,113.182159 
	C54.071918,112.968056 54.108955,112.753960 54.610504,112.168137 
	C55.418549,110.641731 55.762089,109.487045 56.105629,108.332352 
	C56.105633,108.332352 56.070896,108.134735 56.554817,108.084404 
	C58.023636,108.979324 59.278149,109.772812 59.919163,110.911636 
	C60.587852,112.099632 60.665382,113.620392 61.001366,114.995667 
	C60.264194,116.899803 59.527023,118.803947 58.523682,120.913925 
z"/>
<path fill="#0D387C" opacity="1.000000" stroke="none" 
	d="
M117.575378,193.481613 
	C118.725868,192.527740 120.077957,191.741898 121.522202,191.203049 
	C124.036652,190.264923 126.607948,189.479156 129.427338,189.187515 
	C128.851685,192.119019 123.421448,193.842285 128.882004,196.970657 
	C125.273453,196.079010 121.545967,194.919937 117.575378,193.481613 
z"/>
<path fill="#429ED2" opacity="1.000000" stroke="none" 
	d="
M188.006317,100.250381 
	C189.209320,100.794342 190.112488,101.673592 191.119019,102.411926 
	C193.711197,104.313416 196.399429,105.533447 199.726562,103.102081 
	C198.723343,107.339890 196.148682,108.723526 191.885239,106.897957 
	C190.447601,106.282364 188.736313,106.305870 186.765060,106.036118 
	C186.837875,104.197121 187.295700,102.359299 188.006317,100.250381 
z"/>
<path fill="#339ECF" opacity="1.000000" stroke="none" 
	d="
M273.918457,205.637787 
	C273.071930,208.191666 272.040802,210.710312 270.621155,213.618500 
	C268.824463,214.327469 267.416290,214.646896 266.008118,214.966339 
	C265.570557,214.961380 265.132965,214.956421 264.323517,214.597137 
	C264.328552,212.981369 264.533875,211.631882 265.124664,210.480118 
	C265.911438,208.946320 266.998260,207.566406 268.406464,206.091888 
	C270.376617,205.976883 271.896484,205.890381 273.416382,205.803879 
	C273.416382,205.803879 273.733826,205.602539 273.918457,205.637787 
z"/>
<path fill="#0D387C" opacity="1.000000" stroke="none" 
	d="
M166.446793,202.722427 
	C167.666840,201.732819 169.260605,200.381592 171.014130,200.125854 
	C174.863815,199.564423 179.178116,202.255630 182.557617,198.380188 
	C183.035034,199.088226 183.512451,199.796265 183.993423,200.876160 
	C178.295654,201.784592 172.594315,202.321152 166.446793,202.722427 
z"/>
<path fill="#1F7FB7" opacity="1.000000" stroke="none" 
	d="
M257.981110,213.038803 
	C256.419342,212.234238 254.857605,211.429657 253.209442,209.961075 
	C255.240921,206.931885 260.851990,208.131622 259.911499,202.645218 
	C260.526611,202.828995 261.141754,203.012772 262.092163,203.575714 
	C263.237579,204.372147 264.047699,204.789429 264.664307,205.450226 
	C262.307556,208.142105 260.144318,210.590454 257.981110,213.038803 
z"/>
<path fill="#146EAB" opacity="1.000000" stroke="none" 
	d="
M259.749847,202.531616 
	C260.851990,208.131622 255.240921,206.931885 253.050171,209.656799 
	C251.889374,209.723648 250.467850,209.755630 249.791901,209.061539 
	C248.785309,208.027969 248.305176,206.481720 247.601013,205.153641 
	C248.950363,205.114594 250.445663,204.680344 251.620422,205.114136 
	C254.580902,206.207275 257.096924,206.461426 259.043488,202.914047 
	C259.216553,202.552292 259.588196,202.418015 259.749847,202.531616 
z"/>
<path fill="#2F93C5" opacity="1.000000" stroke="none" 
	d="
M228.161407,119.679245 
	C226.684479,119.711365 225.371933,119.422775 223.728745,119.073723 
	C224.389694,116.784004 225.381287,114.554756 226.633530,111.956879 
	C226.894180,111.588249 226.998276,111.329033 226.998276,111.329033 
	C226.998276,111.329033 226.975189,111.107979 227.080017,111.070427 
	C230.718414,113.375977 230.970657,116.168755 228.161407,119.679245 
z"/>
<path fill="#0D387C" opacity="1.000000" stroke="none" 
	d="
M230.034866,207.341461 
	C237.095306,209.044159 238.928802,210.928299 238.103394,215.746399 
	C235.313965,213.276016 232.666763,210.479980 230.034866,207.341461 
z"/>
<path fill="#0D387C" opacity="1.000000" stroke="none" 
	d="
M151.383926,201.967834 
	C150.831024,198.904526 151.367859,197.074738 154.783295,198.893066 
	C156.757782,199.944260 158.788635,200.889572 160.897125,202.192230 
	C157.907669,202.392624 154.815201,202.283310 151.383926,201.967834 
z"/>
<path fill="#4AAED5" opacity="1.000000" stroke="none" 
	d="
M167.456070,181.012665 
	C164.264771,180.633469 161.520233,180.244568 158.480927,179.663757 
	C164.773209,179.393265 171.360260,179.314667 178.373474,179.382889 
	C175.167389,180.020798 171.535095,180.511887 167.456070,181.012665 
z"/>
<path fill="#43AFD9" opacity="1.000000" stroke="none" 
	d="
M201.993149,101.996826 
	C201.336212,100.009666 200.530548,98.055031 200.085831,96.021454 
	C199.867584,95.023476 200.318878,93.879074 200.666809,92.584213 
	C201.657120,92.310013 202.447784,92.252541 203.618225,92.467125 
	C203.997971,92.739189 204.060608,93.041260 204.039520,93.481827 
	C203.343338,96.613876 202.668243,99.305351 201.993149,101.996826 
z"/>
<path fill="#0D387C" opacity="1.000000" stroke="none" 
	d="
M86.297653,177.251785 
	C90.661903,177.395340 95.600372,177.102905 96.958763,183.481110 
	C93.487762,181.726791 89.973938,179.630951 86.297653,177.251785 
z"/>
<path fill="#429ED2" opacity="1.000000" stroke="none" 
	d="
M201.990128,102.243996 
	C202.668243,99.305351 203.343338,96.613876 204.369171,93.471832 
	C205.373871,93.015007 206.027863,93.008751 206.681854,93.002502 
	C207.514359,93.334496 208.346863,93.666481 209.369217,94.281250 
	C208.369003,96.486649 206.760468,98.278435 206.106888,100.368797 
	C205.456909,102.447685 205.361359,104.378639 202.223846,103.258575 
	C201.996353,102.985458 201.987106,102.491165 201.990128,102.243996 
z"/>
<path fill="#0D387C" opacity="1.000000" stroke="none" 
	d="
M131.485626,198.163834 
	C132.841553,197.941757 134.461182,197.941757 136.614914,197.941757 
	C135.664490,196.595657 135.011032,195.670135 134.357559,194.744629 
	C134.587219,194.427948 134.816864,194.111282 135.046524,193.794601 
	C136.253143,194.458847 138.569656,195.548386 138.502213,195.724426 
	C137.202805,199.115479 140.517059,198.644897 141.882446,200.122910 
	C138.582840,199.741913 135.166092,199.063919 131.485626,198.163834 
z"/>
<path fill="#185EA8" opacity="1.000000" stroke="none" 
	d="
M207.394775,104.991440 
	C208.718369,102.406097 210.386353,99.772514 212.375153,97.068420 
	C213.134552,97.411049 213.573151,97.824181 214.025879,98.546173 
	C211.939728,100.884438 209.839447,102.913818 207.394775,104.991440 
z"/>
<path fill="#44A5D1" opacity="1.000000" stroke="none" 
	d="
M61.294205,114.746765 
	C60.665382,113.620392 60.587852,112.099632 59.919163,110.911636 
	C59.278149,109.772812 58.023636,108.979324 56.651688,108.058304 
	C58.573391,104.832085 58.573391,104.832085 63.053844,108.877426 
	C62.605591,110.939240 62.096321,112.718552 61.294205,114.746765 
z"/>
<path fill="#0D387C" opacity="1.000000" stroke="none" 
	d="
M190.571808,200.442749 
	C193.603958,199.329132 196.996368,198.329727 200.659210,197.576981 
	C197.597107,198.734741 194.264572,199.645844 190.571808,200.442749 
z"/>
<path fill="#46ADD7" opacity="1.000000" stroke="none" 
	d="
M264.857849,205.206711 
	C264.047699,204.789429 263.237579,204.372147 262.298767,203.722168 
	C265.684631,204.117813 269.199158,204.746140 273.065002,205.589172 
	C271.896484,205.890381 270.376617,205.976883 268.087372,206.036987 
	C266.497955,205.742630 265.677917,205.474670 264.857849,205.206711 
z"/>
<path fill="#0D387C" opacity="1.000000" stroke="none" 
	d="
M74.045883,168.335205 
	C75.574226,169.114609 77.246750,170.189835 78.952583,171.620361 
	C77.387283,170.860779 75.788673,169.745911 74.045883,168.335205 
z"/>
<path fill="#46AFD8" opacity="1.000000" stroke="none" 
	d="
M253.716537,79.514595 
	C252.885986,80.642761 251.753708,81.799408 250.250702,82.928207 
	C251.058243,81.781273 252.236526,80.662170 253.716537,79.514595 
z"/>
<path fill="#4BB1D8" opacity="1.000000" stroke="none" 
	d="
M216.801270,148.710419 
	C216.988785,151.076294 216.932098,153.681091 216.753235,156.716736 
	C216.606384,154.414841 216.581711,151.682068 216.801270,148.710419 
z"/>
<path fill="#0D387C" opacity="1.000000" stroke="none" 
	d="
M144.335388,200.993896 
	C145.188141,200.839859 146.306564,200.876266 147.623505,201.103027 
	C146.748367,201.257034 145.674698,201.220673 144.335388,200.993896 
z"/>
<path fill="#44A5D1" opacity="1.000000" stroke="none" 
	d="
M55.852047,108.488853 
	C55.762089,109.487045 55.418549,110.641731 54.782059,111.891022 
	C54.858891,110.872192 55.228676,109.758774 55.852047,108.488853 
z"/>
<path fill="#0D387C" opacity="1.000000" stroke="none" 
	d="
M185.171234,201.290192 
	C185.783051,200.887741 186.631958,200.610291 187.694977,200.550140 
	C187.075485,200.983368 186.241913,201.199265 185.171234,201.290192 
z"/>
<path fill="#0D387C" opacity="1.000000" stroke="none" 
	d="
M83.237808,175.265579 
	C84.045860,175.403259 84.973694,175.820221 85.959648,176.564331 
	C85.131050,176.442612 84.244316,175.993729 83.237808,175.265579 
z"/>
<path fill="#399FCC" opacity="1.000000" stroke="none" 
	d="
M288.696960,71.657188 
	C287.897430,71.929779 286.849548,71.971207 285.405273,72.001038 
	C285.008881,71.989449 285.007690,71.549026 285.008453,71.328995 
	C286.155670,71.214645 287.302124,71.320335 288.696960,71.657188 
z"/>
<path fill="#257AAF" opacity="1.000000" stroke="none" 
	d="
M220.912476,127.225334 
	C221.359955,127.468445 221.657059,127.941910 221.969147,128.707382 
	C221.984131,128.999390 221.616577,128.998962 221.616577,128.998962 
	C221.616577,128.998962 221.249084,129.004929 221.066010,129.018280 
	C220.842682,128.506317 220.802414,127.981003 220.912476,127.225334 
z"/>
<path fill="#57BCE3" opacity="1.000000" stroke="none" 
	d="
M206.515137,92.756561 
	C206.027863,93.008751 205.373871,93.015007 204.390244,93.031258 
	C204.060608,93.041260 203.997971,92.739189 203.998566,92.585724 
	C204.782242,92.458382 205.565338,92.484497 206.515137,92.756561 
z"/>
<path fill="#1A629D" opacity="1.000000" stroke="none" 
	d="
M93.697830,158.789490 
	C93.344635,158.564728 92.812263,158.115936 92.134583,157.448059 
	C92.499062,157.674469 93.008850,158.119965 93.697830,158.789490 
z"/>
<path fill="#429ED2" opacity="1.000000" stroke="none" 
	d="
M186.270355,110.289497 
	C186.373703,109.986908 186.790024,109.973991 186.966507,110.379539 
	C187.220917,111.537010 187.298859,112.288933 187.376785,113.040855 
	C187.376785,113.040855 187.129242,113.108963 187.037308,113.018486 
	C186.685913,112.149368 186.426453,111.370728 186.270355,110.289497 
z"/>
<path fill="#57BBE3" opacity="1.000000" stroke="none" 
	d="
M147.500763,92.799515 
	C146.960281,92.967278 146.272278,92.896080 145.387024,92.660339 
	C145.910934,92.517380 146.632111,92.538963 147.500763,92.799515 
z"/>
<path fill="#41A7D3" opacity="1.000000" stroke="none" 
	d="
M47.720051,125.249306 
	C47.793648,125.656929 47.603703,126.193588 47.151215,126.868698 
	C47.077953,126.464218 47.267231,125.921280 47.720051,125.249306 
z"/>
<path fill="#1A629D" opacity="1.000000" stroke="none" 
	d="
M61.767838,135.587601 
	C61.553543,135.396698 61.382923,134.912750 61.383217,134.288971 
	C61.639923,134.530960 61.725719,134.912750 61.767838,135.587601 
z"/>
<path fill="#4AAED5" opacity="1.000000" stroke="none" 
	d="
M154.695526,178.833130 
	C154.787689,179.032883 154.379471,179.171432 154.178253,179.250870 
	C153.977051,179.330307 153.521057,179.145645 153.286057,179.074249 
	C153.568497,178.879700 154.085922,178.756546 154.695526,178.833130 
z"/>
<path fill="#41A7D3" opacity="1.000000" stroke="none" 
	d="
M51.827026,117.489952 
	C51.911266,117.812332 51.777496,118.222343 51.465721,118.759109 
	C51.394810,118.449768 51.501911,118.013672 51.827026,117.489952 
z"/>
<path fill="#41A7D3" opacity="1.000000" stroke="none" 
	d="
M52.807098,115.244385 
	C52.887081,115.558205 52.785854,116.059731 52.492233,116.730446 
	C52.408527,116.410454 52.517212,115.921265 52.807098,115.244385 
z"/>
<path fill="#1A629D" opacity="1.000000" stroke="none" 
	d="
M91.592056,156.845734 
	C91.249680,156.883789 90.776268,156.692322 90.161545,156.284027 
	C90.500488,156.250198 90.980751,156.433197 91.592056,156.845734 
z"/>
<path fill="#0D387C" opacity="1.000000" stroke="none" 
	d="
M291.229858,219.795868 
	C291.121643,219.529327 291.325562,219.317047 291.809753,219.098846 
	C291.991730,219.390228 291.809082,219.642624 291.229858,219.795868 
z"/>
<path fill="#0D387C" opacity="1.000000" stroke="none" 
	d="
M242.255844,220.149170 
	C242.428787,220.036865 242.597794,220.145386 242.829376,220.415558 
	C242.916519,220.538986 242.551331,220.574753 242.551331,220.574753 
	C242.551331,220.574753 242.276443,220.331772 242.255844,220.149170 
z"/>
<path fill="#0B367B" opacity="1.000000" stroke="none" 
	d="
M304.835327,79.779243 
	C304.663239,79.830078 304.455811,79.630249 304.130829,79.243454 
	C304.344513,79.087578 304.606781,79.244942 304.835327,79.779243 
z"/>
<path fill="#0B367B" opacity="1.000000" stroke="none" 
	d="
M303.858459,78.784019 
	C303.704956,78.837509 303.492889,78.659569 303.137207,78.330368 
	C303.329987,78.150482 303.598755,78.274979 303.858459,78.784019 
z"/>
<path fill="#45ACD7" opacity="1.000000" stroke="none" 
	d="
M262.657654,74.526756 
	C262.695557,74.718185 262.554626,74.822571 262.266052,74.941101 
	C262.139648,74.728722 262.259796,74.556877 262.657654,74.526756 
z"/>
<path fill="#0D387C" opacity="1.000000" stroke="none" 
	d="
M241.198151,219.205841 
	C241.408981,219.079987 241.627365,219.231949 241.910706,219.613403 
	C241.679855,219.836060 241.423218,219.716309 241.198151,219.205841 
z"/>
<path fill="#41A7D3" opacity="1.000000" stroke="none" 
	d="
M49.916985,121.447540 
	C50.026527,121.484230 49.937557,121.601471 49.928322,121.632835 
	C49.919083,121.664200 49.807446,121.410858 49.916985,121.447540 
z"/>
<path fill="#44A5D1" opacity="1.000000" stroke="none" 
	d="
M64.732460,110.783829 
	C64.817360,110.963249 64.351768,110.969482 64.351768,110.969482 
	C64.351768,110.969482 64.007401,110.656219 64.008789,110.424667 
	C64.305153,110.202446 64.517616,110.339539 64.732460,110.783829 
z"/>
<path fill="#0D387C" opacity="1.000000" stroke="none" 
	d="
M227.232208,203.251373 
	C227.520752,203.176971 227.724167,203.430847 227.872772,204.004654 
	C227.687012,204.001999 227.463394,203.753677 227.232208,203.251373 
z"/>
<path fill="#359ECD" opacity="1.000000" stroke="none" 
	d="
M226.864075,111.322777 
	C226.998276,111.329033 226.894180,111.588249 226.859283,111.644402 
	C226.824371,111.700554 226.604462,111.550751 226.604462,111.550751 
	C226.604462,111.550751 226.729858,111.316521 226.864075,111.322777 
z"/>
<path fill="#3F9DD1" opacity="1.000000" stroke="none" 
	d="
M127.513283,112.174683 
	C127.602791,112.010216 127.940926,111.989944 128.107651,112.025414 
	C128.274384,112.060883 128.155640,112.464485 128.027924,112.629517 
	C127.581985,112.809372 127.423180,112.657570 127.513283,112.174683 
z"/>
<path fill="#44A5D1" opacity="1.000000" stroke="none" 
	d="
M53.849709,113.250580 
	C54.034885,113.182159 54.016869,113.579849 54.013138,113.778656 
	C54.009407,113.977455 53.683468,114.018738 53.519501,114.022369 
	C53.352139,113.743774 53.455135,113.508110 53.849709,113.250580 
z"/>
<path fill="#41A7D3" opacity="1.000000" stroke="none" 
	d="
M50.752544,120.018913 
	C50.946594,120.195229 50.852356,120.474487 50.502937,120.877998 
	C50.260235,120.702934 50.332401,120.409470 50.752544,120.018913 
z"/>
<path fill="#0D387C" opacity="1.000000" stroke="none" 
	d="
M79.108643,172.234314 
	C79.316605,172.073578 79.559402,172.204163 79.886719,172.575363 
	C79.670387,172.828842 79.394470,172.732056 79.108643,172.234314 
z"/>
<path fill="#41A7D3" opacity="1.000000" stroke="none" 
	d="
M48.881927,123.412140 
	C49.007149,123.438354 48.869053,123.662033 48.833733,123.711777 
	C48.798416,123.761528 48.610668,123.591995 48.610668,123.591995 
	C48.610668,123.591995 48.756710,123.385933 48.881927,123.412140 
z"/>
<path fill="#0B367B" opacity="1.000000" stroke="none" 
	d="
M250.582825,193.806061 
	C250.473038,193.808456 250.345963,193.636246 250.089935,193.362030 
	C250.261368,193.237885 250.462875,193.361679 250.582825,193.806061 
z"/>
<path fill="#1A629D" opacity="1.000000" stroke="none" 
	d="
M89.830963,155.796478 
	C89.666374,155.913315 89.450607,155.791641 89.127060,155.495895 
	C89.301399,155.273880 89.554909,155.352600 89.830963,155.796478 
z"/>
<path fill="#4BB1D8" opacity="1.000000" stroke="none" 
	d="
M201.601685,174.662903 
	C201.690338,174.755157 201.448425,174.917496 201.382629,174.947906 
	C201.235992,174.771210 201.301392,174.635330 201.601685,174.662903 
z"/>
<path fill="#1569A6" opacity="1.000000" stroke="none" 
	d="
M140.535858,186.078262 
	C147.046188,187.343445 153.133087,188.595551 159.627686,189.838623 
	C164.729263,189.863358 169.423126,189.897110 174.583160,189.851746 
	C179.211945,189.362854 183.374573,188.953094 187.776413,188.827820 
	C184.475616,190.060501 180.983276,191.557938 177.388046,191.869965 
	C148.713806,194.358536 122.275093,187.037781 97.422142,173.110229 
	C96.883202,172.808212 96.512054,172.206711 96.369705,171.385895 
	C100.133720,172.663727 103.590668,174.300583 107.403130,175.998932 
	C111.502304,177.374222 115.245964,178.688034 118.989624,180.001831 
	C126.030556,182.022949 133.071487,184.044067 140.535858,186.078262 
z"/>
<path fill="#1F7FB7" opacity="1.000000" stroke="none" 
	d="
M107.047615,175.937439 
	C103.590668,174.300583 100.133720,172.663727 96.292862,171.047119 
	C95.908951,171.067368 95.468605,171.008606 95.191940,170.641663 
	C93.582649,169.535950 92.250031,168.797211 90.917419,168.058472 
	C90.325378,167.600189 89.733337,167.141907 88.989044,166.445404 
	C90.612167,166.162277 92.494385,165.710571 94.144150,166.143875 
	C100.786163,167.888443 107.347282,169.939163 113.966644,171.774490 
	C114.652061,171.964523 115.526131,171.474121 116.660156,171.148499 
	C120.864693,172.067963 124.721741,173.138351 128.578796,174.208740 
	C128.556671,174.667618 128.534546,175.126495 128.512436,175.585358 
	C126.297440,175.728012 124.082443,175.870651 121.434525,176.022369 
	C120.556755,176.028427 120.111916,176.025391 118.940308,176.011414 
	C115.409912,175.271225 112.544823,174.716888 109.821091,173.760132 
	C107.425247,172.918549 106.896004,173.841858 107.047615,175.937439 
z"/>
<path fill="#073E84" opacity="1.000000" stroke="none" 
	d="
M220.185303,183.216614 
	C222.187912,183.763336 225.649323,183.971680 226.409912,185.512878 
	C231.231888,195.283554 237.419479,203.830856 246.004425,210.601410 
	C246.474243,210.971954 246.642242,211.725174 246.990829,212.646820 
	C238.062561,208.174408 230.367004,202.172394 227.094284,191.935577 
	C225.936905,188.315399 224.750626,184.621109 220.185303,183.216614 
z"/>
<path fill="#1569A6" opacity="1.000000" stroke="none" 
	d="
M78.680496,152.863831 
	C79.008553,153.758652 79.005814,154.506226 79.003517,155.627808 
	C76.512001,155.256622 74.020042,154.511414 71.176765,153.906891 
	C67.642700,151.593414 64.459953,149.139267 61.111816,146.385529 
	C63.168182,141.930573 65.112617,145.937057 66.727997,146.601959 
	C70.758057,148.260788 74.495079,150.631561 78.680496,152.863831 
z"/>
<path fill="#0D387C" opacity="1.000000" stroke="none" 
	d="
M280.216797,213.105896 
	C281.255798,212.785263 282.294769,212.464645 283.662964,212.180969 
	C283.063843,214.428879 282.135559,216.639847 280.706085,220.044464 
	C279.078674,218.629379 277.614014,217.355804 276.122925,215.765259 
	C276.096497,215.448288 276.045990,215.188950 276.362823,215.127975 
	C277.858704,214.413300 279.037750,213.759598 280.216797,213.105896 
z"/>
<path fill="#0D387C" opacity="1.000000" stroke="none" 
	d="
M252.071518,215.961288 
	C252.374374,216.055771 252.627563,216.224701 252.956177,216.660507 
	C251.139847,220.554657 248.556046,217.468796 246.267059,217.497879 
	C246.414627,216.481476 246.562195,215.465057 246.901688,214.163147 
	C247.817902,213.909073 248.542221,213.940491 249.674347,214.311768 
	C250.745285,215.088181 251.408401,215.524734 252.071518,215.961288 
z"/>
<path fill="#2988BB" opacity="1.000000" stroke="none" 
	d="
M266.241913,215.247070 
	C267.416290,214.646896 268.824463,214.327469 270.619141,213.999878 
	C271.584412,214.196793 272.163239,214.401871 272.886993,214.890167 
	C272.273102,215.478394 271.514282,215.783432 270.434387,216.116119 
	C268.900787,215.938446 267.688263,215.733124 266.241913,215.247070 
z"/>
<path fill="#2081B9" opacity="1.000000" stroke="none" 
	d="
M208.172211,183.401367 
	C209.205292,182.530243 210.439682,181.920029 211.946411,181.665955 
	C212.185257,182.362274 212.151794,182.702484 212.118332,183.042679 
	C210.870056,183.249222 209.621780,183.455750 208.172211,183.401367 
z"/>
<path fill="#1569A6" opacity="1.000000" stroke="none" 
	d="
M90.990631,168.388916 
	C92.250031,168.797211 93.582649,169.535950 94.972351,170.608154 
	C93.707573,170.200851 92.385704,169.460098 90.990631,168.388916 
z"/>
<path fill="#0D387C" opacity="1.000000" stroke="none" 
	d="
M287.352600,210.987030 
	C288.126312,210.045135 289.257355,209.104660 290.714355,208.174545 
	C289.930145,209.119431 288.820038,210.053940 287.352600,210.987030 
z"/>
<path fill="#1569A6" opacity="1.000000" stroke="none" 
	d="
M75.959610,158.395493 
	C76.910728,158.796127 77.923302,159.528625 78.978546,160.597870 
	C78.021164,160.198853 77.021111,159.463120 75.959610,158.395493 
z"/>
<path fill="#073E84" opacity="1.000000" stroke="none" 
	d="
M212.478485,183.032837 
	C212.151794,182.702484 212.185257,182.362274 212.289490,181.782272 
	C212.989914,181.433701 213.619537,181.324936 214.567230,181.272430 
	C214.915527,181.697769 214.945770,182.066818 214.993622,182.715500 
	C214.287048,183.004410 213.562851,183.013718 212.478485,183.032837 
z"/>
<path fill="#1569A6" opacity="1.000000" stroke="none" 
	d="
M79.975708,161.370483 
	C80.577484,161.475403 81.248283,161.893112 81.968903,162.631897 
	C81.360725,162.529739 80.702728,162.106522 79.975708,161.370483 
z"/>
<path fill="#43AFD9" opacity="1.000000" stroke="none" 
	d="
M251.336273,163.913849 
	C246.886627,164.912033 242.804764,167.947113 238.411987,164.778107 
	C238.937592,162.768158 239.418564,160.928909 240.278839,158.612030 
	C241.957748,157.404007 243.381989,156.831451 244.537827,155.918945 
	C257.384979,145.776428 270.190613,135.581329 283.295776,125.574020 
	C285.682526,125.018311 287.815094,124.373093 289.871002,123.538986 
	C292.602844,122.430641 293.010651,124.010490 293.060852,126.433624 
	C293.045959,127.182014 293.047333,127.610016 293.048676,128.037994 
	C292.539490,128.591644 292.030334,129.145279 290.942413,129.889191 
	C289.880249,130.996994 289.396851,131.914536 288.913422,132.832062 
	C288.410095,133.438568 287.906769,134.045090 286.810455,134.836990 
	C284.116028,137.290298 282.014587,139.558228 279.913147,141.826157 
	C279.529510,142.212616 279.145874,142.599091 278.129883,143.038544 
	C276.661743,144.063339 275.825989,145.035172 274.990234,146.007004 
	C274.031281,146.763931 273.072327,147.520844 271.684784,148.610992 
	C270.426971,149.909439 269.597748,150.874680 268.768524,151.839905 
	C268.331451,152.128815 267.894348,152.417725 266.918518,152.872681 
	C265.841797,153.638947 265.303772,154.239151 264.765747,154.839355 
	C263.387024,155.827225 262.008331,156.815094 260.013977,157.929932 
	C258.865387,158.660645 258.332458,159.264389 257.799530,159.868118 
	C255.737686,161.154922 253.675858,162.441757 251.336273,163.913849 
z"/>
<path fill="#348EBF" opacity="1.000000" stroke="none" 
	d="
M290.515289,104.969894 
	C290.972809,106.813469 291.430328,108.657036 292.038910,111.109337 
	C294.602356,110.168510 296.818726,109.355064 300.005646,108.185410 
	C299.656219,111.131836 299.350922,113.706169 299.086548,116.692993 
	C298.996063,117.394180 298.814514,117.646889 297.999146,117.812965 
	C294.238922,118.172623 291.062439,118.582916 287.954376,118.604782 
	C288.853607,113.800873 289.684448,109.385384 290.515289,104.969894 
z"/>
<path fill="#3EA3CD" opacity="1.000000" stroke="none" 
	d="
M287.885986,118.993210 
	C291.062439,118.582916 294.238922,118.172623 297.788544,117.916336 
	C297.830994,119.439293 297.500275,120.808258 296.701263,122.588882 
	C295.858948,123.692451 295.484894,124.384354 295.110870,125.076256 
	C295.110870,125.076256 295.034088,125.012924 294.782501,125.121643 
	C294.046326,125.524643 293.561707,125.818932 293.077118,126.113220 
	C293.010651,124.010490 292.602844,122.430641 289.871002,123.538986 
	C287.815094,124.373093 285.682526,125.018311 283.409912,125.233047 
	C284.785797,122.810059 286.335907,120.901634 287.885986,118.993210 
z"/>
<path fill="#0E5191" opacity="1.000000" stroke="none" 
	d="
M236.957855,184.584152 
	C236.296631,184.221741 235.075195,183.388184 235.112656,182.615677 
	C235.342941,177.866852 235.522324,172.990860 240.648071,170.043823 
	C238.516937,174.392792 236.023392,178.775101 236.957855,184.584152 
z"/>
<path fill="#2B91C4" opacity="1.000000" stroke="none" 
	d="
M280.258148,141.832642 
	C282.014587,139.558228 284.116028,137.290298 286.552490,134.980225 
	C284.792725,137.238434 282.697937,139.538773 280.258148,141.832642 
z"/>
<path fill="#2B91C4" opacity="1.000000" stroke="none" 
	d="
M275.327393,145.984650 
	C275.825989,145.035172 276.661743,144.063339 277.858459,143.113892 
	C277.367798,144.078278 276.516205,145.020279 275.327393,145.984650 
z"/>
<path fill="#0E609F" opacity="1.000000" stroke="none" 
	d="
M269.134003,151.867401 
	C269.597748,150.874680 270.426971,149.909439 271.588257,148.903839 
	C271.113342,149.873947 270.306396,150.884415 269.134003,151.867401 
z"/>
<path fill="#1262A0" opacity="1.000000" stroke="none" 
	d="
M293.060852,126.433624 
	C293.561707,125.818932 294.046326,125.524643 294.807983,125.164368 
	C294.630035,126.041840 294.175049,126.985298 293.384369,127.983383 
	C293.047333,127.610016 293.045959,127.182014 293.060852,126.433624 
z"/>
<path fill="#2B91C4" opacity="1.000000" stroke="none" 
	d="
M289.224365,132.756424 
	C289.396851,131.914536 289.880249,130.996994 290.707184,130.050964 
	C290.545593,130.908585 290.040436,131.794693 289.224365,132.756424 
z"/>
<path fill="#1262A0" opacity="1.000000" stroke="none" 
	d="
M295.432068,125.009674 
	C295.484894,124.384354 295.858948,123.692451 296.536316,122.904175 
	C296.477509,123.519562 296.115387,124.231331 295.432068,125.009674 
z"/>
<path fill="#0E609F" opacity="1.000000" stroke="none" 
	d="
M258.140564,159.888031 
	C258.332458,159.264389 258.865387,158.660645 259.723022,158.050873 
	C259.525726,158.665863 259.003662,159.286896 258.140564,159.888031 
z"/>
<path fill="#0E609F" opacity="1.000000" stroke="none" 
	d="
M265.111023,154.866028 
	C265.303772,154.239151 265.841797,153.638947 266.702972,153.022202 
	C266.502838,153.634659 265.979553,154.263657 265.111023,154.866028 
z"/>
<path fill="#FBFBFC" opacity="1.000000" stroke="none" 
	d="
M287.954376,118.604782 
	C286.335907,120.901634 284.785797,122.810059 283.121582,125.059448 
	C270.190613,135.581329 257.384979,145.776428 244.537827,155.918945 
	C243.381989,156.831451 241.957748,157.404007 240.307861,158.244934 
	C239.882690,158.115616 239.807831,157.875778 239.744476,156.924835 
	C241.743454,147.124466 243.349289,137.930130 245.815826,128.972809 
	C248.842041,117.983063 253.187943,107.497971 261.893097,99.546646 
	C271.479797,90.790146 282.435364,91.809402 290.133698,102.061966 
	C290.220764,102.788071 290.307861,103.514168 290.455139,104.605087 
	C289.684448,109.385384 288.853607,113.800873 287.954376,118.604782 
z"/>
<path fill="#09367B" opacity="1.000000" stroke="none" 
	d="
M290.475677,101.972534 
	C282.435364,91.809402 271.479797,90.790146 261.893097,99.546646 
	C253.187943,107.497971 248.842041,117.983063 245.815826,128.972809 
	C243.349289,137.930130 241.743454,147.124466 239.570587,156.590485 
	C230.785950,157.208176 230.286850,157.162720 231.105957,148.169006 
	C232.268341,135.406387 235.847824,123.167908 241.205368,111.480362 
	C242.417999,108.834991 243.405899,106.086601 244.244171,103.181381 
	C243.991074,102.977135 244.079758,102.544418 244.513474,102.310059 
	C245.427170,101.966728 246.122742,102.024788 246.355560,101.724319 
	C251.871109,94.605743 258.631439,89.040802 266.755402,85.132576 
	C266.969116,85.029747 266.999512,84.545784 267.115387,84.239571 
	C267.520081,84.132225 267.924805,84.024879 268.789978,84.136269 
	C269.863007,83.953613 270.475616,83.552223 271.088226,83.150833 
	C271.497101,83.075867 271.906006,83.000900 272.624939,82.900787 
	C274.948853,83.245361 276.958130,83.899918 278.977448,83.932518 
	C285.592957,84.039307 290.212616,87.239700 293.231354,92.871330 
	C295.168488,96.485153 293.875732,99.480927 290.475677,101.972534 
z"/>
<path fill="#2F93C5" opacity="1.000000" stroke="none" 
	d="
M229.069229,134.071182 
	C224.508011,130.781769 225.554474,126.680199 227.702164,122.231155 
	C229.749878,121.355797 231.501678,120.712502 233.600998,120.029236 
	C232.956894,123.708351 231.965286,127.427422 230.638550,131.608292 
	C229.897430,132.732880 229.491440,133.395676 229.085449,134.058472 
	C229.085434,134.058472 229.067749,134.062714 229.069229,134.071182 
z"/>
<path fill="#2988BB" opacity="1.000000" stroke="none" 
	d="
M264.664307,205.450226 
	C265.677917,205.474670 266.497955,205.742630 267.637115,206.065491 
	C266.998260,207.566406 265.911438,208.946320 265.124664,210.480118 
	C264.533875,211.631882 264.328552,212.981369 263.995819,214.578415 
	C262.173584,214.467957 260.307190,214.021896 258.210938,213.307312 
	C260.144318,210.590454 262.307556,208.142105 264.664307,205.450226 
z"/>
<path fill="#073E84" opacity="1.000000" stroke="none" 
	d="
M252.007935,215.645020 
	C251.408401,215.524734 250.745285,215.088181 250.038025,214.326111 
	C250.644043,214.443329 251.294189,214.886047 252.007935,215.645020 
z"/>
<path fill="#2081B9" opacity="1.000000" stroke="none" 
	d="
M229.400482,134.004974 
	C229.491440,133.395676 229.897430,132.732880 230.621277,132.018005 
	C230.531250,132.627762 230.123383,133.289627 229.400482,134.004974 
z"/>
<path fill="#339ECF" opacity="1.000000" stroke="none" 
	d="
M279.824768,213.072464 
	C279.037750,213.759598 277.858704,214.413300 276.324493,215.001556 
	C277.123779,214.303741 278.278259,213.671387 279.824768,213.072464 
z"/>
<path fill="#399FCC" opacity="1.000000" stroke="none" 
	d="
M283.641541,71.841141 
	C285.320953,75.070145 286.649567,78.144157 287.989502,81.590889 
	C285.925659,81.914368 283.850494,81.865120 281.340729,81.686142 
	C279.760406,78.656517 278.614655,75.756622 276.994293,71.655449 
	C277.996307,69.807869 280.682037,70.916527 283.641541,71.841141 
z"/>
<path fill="#185EA8" opacity="1.000000" stroke="none" 
	d="
M187.737854,113.042953 
	C187.298859,112.288933 187.220917,111.537010 187.172882,110.407455 
	C192.271851,110.474701 197.340942,110.919579 202.705627,111.630066 
	C198.033813,112.278793 193.066360,112.661919 187.737854,113.042953 
z"/>
<path fill="#185EA8" opacity="1.000000" stroke="none" 
	d="
M205.244598,110.819313 
	C205.365143,109.983597 205.791885,109.027969 206.542648,107.985428 
	C206.428040,108.832138 205.989426,109.765770 205.244598,110.819313 
z"/>
<path fill="#379CCC" opacity="1.000000" stroke="none" 
	d="
M52.473869,136.017914 
	C52.084572,136.960068 51.377766,137.948425 50.329121,138.941635 
	C50.710308,137.985703 51.433334,137.024918 52.473869,136.017914 
z"/>
<path fill="#1262A0" opacity="1.000000" stroke="none" 
	d="
M266.735138,84.172455 
	C266.999512,84.545784 266.969116,85.029747 266.755402,85.132576 
	C258.631439,89.040802 251.871109,94.605743 246.355560,101.724319 
	C246.122742,102.024788 245.427170,101.966728 244.599091,102.106468 
	C245.433914,100.305740 246.616852,98.474236 247.953644,96.341789 
	C253.261276,90.642525 258.812164,85.851326 266.735138,84.172455 
z"/>
<path fill="#1262A0" opacity="1.000000" stroke="none" 
	d="
M270.786072,83.085541 
	C270.475616,83.552223 269.863007,83.953613 269.103149,84.104645 
	C269.465210,83.576279 269.974579,83.298271 270.786072,83.085541 
z"/>
<path fill="#328BBC" opacity="1.000000" stroke="none" 
	d="
M107.403130,175.998932 
	C106.896004,173.841858 107.425247,172.918549 109.821091,173.760132 
	C112.544823,174.716888 115.409912,175.271225 118.606720,176.017136 
	C118.998093,177.091507 118.996307,178.149231 118.992073,179.604401 
	C115.245964,178.688034 111.502304,177.374222 107.403130,175.998932 
z"/>
</svg>